%FSTAX25Y25*%
%MOIN*%
%SFA1B1*%

%IPPOS*%
%ADD33C,0.059060*%
%ADD34R,0.059060X0.059060*%
%ADD46C,0.039370*%
%ADD68C,0.027690*%
%ADD69C,0.244220*%
%ADD70C,0.074930*%
%ADD71C,0.084770*%
%ADD72C,0.082800*%
%ADD73C,0.086740*%
%ADD74R,0.019810X0.019810*%
%ADD75R,0.049340X0.063120*%
%ADD76R,0.059180X0.043430*%
%ADD77R,0.082800X0.043430*%
%ADD78R,0.114300X0.074930*%
%ADD79R,0.057210X0.078870*%
%ADD80R,0.047370X0.039500*%
%LNfabrication_panel-1*%
%LPD*%
G36*
X0395972Y03819D02*
Y0374006D01*
X039381Y0371843*
X0391624*
X0389461Y0374006*
Y03819*
X0391624Y0384063*
X039381*
X0395972Y03819*
G37*
G36*
X0191248D02*
Y0374006D01*
X0189085Y0371843*
X0186899*
X0184736Y0374006*
Y03819*
X0186899Y0384063*
X0189085*
X0191248Y03819*
G37*
G36*
X0395972Y0098435D02*
Y0090541D01*
X039381Y0088378*
X0391624*
X0389461Y0090541*
Y0098435*
X0391624Y0100598*
X039381*
X0395972Y0098435*
G37*
G36*
X0191248D02*
Y0090541D01*
X0189085Y0088378*
X0186899*
X0184736Y0090541*
Y0098435*
X0186899Y0100598*
X0189085*
X0191248Y0098435*
G37*
G54D33*
X0104016Y0191417D03*
X0114016D03*
X0124016D03*
X0134016D03*
X0144016D03*
Y0131417D03*
X0134016D03*
X0124016D03*
X0114016D03*
X0052835Y0191417D03*
X0062835D03*
X0072835D03*
X0082835D03*
X0092835D03*
Y0131417D03*
X0082835D03*
X0072835D03*
X0062835D03*
X030874Y0191417D03*
X031874D03*
X032874D03*
X033874D03*
X034874D03*
Y0131417D03*
X033874D03*
X032874D03*
X031874D03*
X0257559Y0191417D03*
X0267559D03*
X0277559D03*
X0287559D03*
X0297559D03*
Y0131417D03*
X0287559D03*
X0277559D03*
X0267559D03*
X0104016Y0474882D03*
X0114016D03*
X0124016D03*
X0134016D03*
X0144016D03*
Y0414882D03*
X0134016D03*
X0124016D03*
X0114016D03*
X0052835Y0474882D03*
X0062835D03*
X0072835D03*
X0082835D03*
X0092835D03*
Y0414882D03*
X0082835D03*
X0072835D03*
X0062835D03*
X030874Y0474882D03*
X031874D03*
X032874D03*
X033874D03*
X034874D03*
Y0414882D03*
X033874D03*
X032874D03*
X031874D03*
X0257559Y0474882D03*
X0267559D03*
X0277559D03*
X0287559D03*
X0297559D03*
Y0414882D03*
X0287559D03*
X0277559D03*
X0267559D03*
G54D34*
X0104016Y0131417D03*
X0052835D03*
X030874D03*
X0257559D03*
X0104016Y0414882D03*
X0052835D03*
X030874D03*
X0257559D03*
G54D46*
X0175512Y0261811D02*
X0177165Y0260157D01*
X011063Y0261811D02*
X0175512D01*
X0145Y0220158D02*
X0177165D01*
X0126969Y0238189D02*
X0145Y0220158D01*
X0054724Y0238189D02*
X0126969D01*
X0380236Y0261811D02*
X038189Y0260157D01*
X0315354Y0261811D02*
X0380236D01*
X0349724Y0220158D02*
X038189D01*
X0331693Y0238189D02*
X0349724Y0220158D01*
X0259449Y0238189D02*
X0331693D01*
X0175512Y0545276D02*
X0177165Y0543622D01*
X011063Y0545276D02*
X0175512D01*
X0145Y0503622D02*
X0177165D01*
X0126969Y0521654D02*
X0145Y0503622D01*
X0054724Y0521654D02*
X0126969D01*
X0380236Y0545276D02*
X038189Y0543622D01*
X0315354Y0545276D02*
X0380236D01*
X0349724Y0503622D02*
X038189D01*
X0331693Y0521654D02*
X0349724Y0503622D01*
X0259449Y0521654D02*
X0331693D01*
G54D68*
X0198425Y0556693D03*
Y0552756D03*
Y0548819D03*
Y0544882D03*
Y0540945D03*
Y0537008D03*
X020315D03*
Y0540945D03*
Y0544882D03*
Y0548819D03*
Y0552756D03*
Y0556693D03*
X0399213Y028189D03*
X0395276D03*
X0391339D03*
X0387402D03*
X0383465D03*
X0379528D03*
Y0277165D03*
X0383465D03*
X0387402D03*
X0391339D03*
X0395276D03*
X0399213D03*
X0022047Y028189D03*
X001811D03*
X0014173D03*
X0010236D03*
X0006299D03*
X0002362D03*
Y0277165D03*
X0006299D03*
X0010236D03*
X0014173D03*
X001811D03*
X0022047D03*
X0198425Y0305512D03*
Y0301575D03*
Y0297638D03*
Y0293701D03*
Y0289764D03*
Y0285827D03*
X020315D03*
Y0289764D03*
Y0293701D03*
Y0297638D03*
Y0301575D03*
Y0305512D03*
X0174803Y0277165D03*
X017874D03*
X0182677D03*
X0186614D03*
X0190551D03*
X0194488D03*
Y028189D03*
X0190551D03*
X0186614D03*
X0182677D03*
X017874D03*
X0174803D03*
X0207087Y0277165D03*
X0211024D03*
X0214961D03*
X0218898D03*
X0222835D03*
X0226772D03*
Y028189D03*
X0222835D03*
X0218898D03*
X0214961D03*
X0211024D03*
X0207087D03*
X0198425Y0273622D03*
Y0269685D03*
Y0265748D03*
Y0261811D03*
Y0257874D03*
Y0253937D03*
X020315D03*
Y0257874D03*
Y0261811D03*
Y0265748D03*
Y0269685D03*
Y0273622D03*
Y0022047D03*
Y001811D03*
Y0014173D03*
Y0010236D03*
Y0006299D03*
Y0002362D03*
X0198425D03*
Y0006299D03*
Y0010236D03*
Y0014173D03*
Y001811D03*
Y0022047D03*
G54D69*
X0181102Y0192913D03*
X0015748Y0015748D03*
Y0259842D03*
X0181102Y0015748D03*
X0385827Y0192913D03*
X0220472Y0015748D03*
Y0259842D03*
X0385827Y0015748D03*
X0181102Y0476378D03*
X0015748Y0299213D03*
Y0543307D03*
X0181102Y0299213D03*
X0385827Y0476378D03*
X0220472Y0299213D03*
Y0543307D03*
X0385827Y0299213D03*
G54D70*
X0121063Y0024606D03*
X0146653D03*
X0121063Y000689D03*
X0146653D03*
X0050197Y0024606D03*
X0075787D03*
X0050197Y000689D03*
X0075787D03*
X008563Y0024606D03*
X0111221D03*
X008563Y000689D03*
X0111221D03*
X0325787Y0024606D03*
X0351378D03*
X0325787Y000689D03*
X0351378D03*
X0254921Y0024606D03*
X0280512D03*
X0254921Y000689D03*
X0280512D03*
X0290354Y0024606D03*
X0315945D03*
X0290354Y000689D03*
X0315945D03*
X0121063Y0308071D03*
X0146653D03*
X0121063Y0290354D03*
X0146653D03*
X0050197Y0308071D03*
X0075787D03*
X0050197Y0290354D03*
X0075787D03*
X008563Y0308071D03*
X0111221D03*
X008563Y0290354D03*
X0111221D03*
X0325787Y0308071D03*
X0351378D03*
X0325787Y0290354D03*
X0351378D03*
X0254921Y0308071D03*
X0280512D03*
X0254921Y0290354D03*
X0280512D03*
X0290354Y0308071D03*
X0315945D03*
X0290354Y0290354D03*
X0315945D03*
G54D71*
X0062598Y0261811D03*
X0054724Y0238189D03*
X0062598Y0214567D03*
X011063Y0261811D03*
Y0214567D03*
X0267323Y0261811D03*
X0259449Y0238189D03*
X0267323Y0214567D03*
X0315354Y0261811D03*
Y0214567D03*
X0062598Y0545276D03*
X0054724Y0521654D03*
X0062598Y0498032D03*
X011063Y0545276D03*
Y0498032D03*
X0267323Y0545276D03*
X0259449Y0521654D03*
X0267323Y0498032D03*
X0315354Y0545276D03*
Y0498032D03*
G54D72*
X0042323Y0222126D03*
Y0262126D03*
X0247047Y0222126D03*
Y0262126D03*
X0042323Y050559D03*
Y054559D03*
X0247047Y050559D03*
Y054559D03*
G54D73*
X0177165Y0260157D03*
Y0240158D03*
Y0220158D03*
Y0071024D03*
Y0051024D03*
X038189Y0260157D03*
Y0240158D03*
Y0220158D03*
Y0071024D03*
Y0051024D03*
X0177165Y0543622D03*
Y0523622D03*
Y0503622D03*
Y0354488D03*
Y0334488D03*
X038189Y0543622D03*
Y0523622D03*
Y0503622D03*
Y0354488D03*
Y0334488D03*
G54D74*
X0187992Y0091191D03*
Y0097785D03*
X0392717Y0091191D03*
Y0097785D03*
X0187992Y0374656D03*
Y038125D03*
X0392717Y0374656D03*
Y038125D03*
G54D75*
X0151969Y0066929D03*
X0159055D03*
X0356693D03*
X0363779D03*
X0151969Y0350394D03*
X0159055D03*
X0356693D03*
X0363779D03*
G54D76*
X0151437Y0057087D03*
Y0045276D03*
X0356161Y0057087D03*
Y0045276D03*
X0151437Y0340551D03*
Y032874D03*
X0356161Y0340551D03*
Y032874D03*
G54D77*
X0150256Y0051181D03*
X035498D03*
X0150256Y0334646D03*
X035498D03*
G54D78*
X0141201Y0051181D03*
X0345925D03*
X0141201Y0334646D03*
X0345925D03*
G54D79*
X0162065Y0047241D03*
Y0057477D03*
X036679Y0047241D03*
Y0057477D03*
X0162065Y0330706D03*
Y0340942D03*
X036679Y0330706D03*
Y0340942D03*
G54D80*
X0176378Y0037402D03*
X0162205D03*
X0381102D03*
X0366929D03*
X0176378Y0320866D03*
X0162205D03*
X0381102D03*
X0366929D03*
M02*