%FSTAX25Y25*%
%MOIN*%
%SFA1B1*%

%IPPOS*%
%ADD47C,0.009840*%
%ADD49C,0.007870*%
%LNfabrication_panel-1*%
%LPD*%
G36*
X0351421Y053586D02*
X0351676Y053571D01*
X0351916Y0535591*
X0352096Y0535486*
X0352246Y0535411*
X0352366Y0535351*
X0352426Y0535321*
X0352456Y0535306*
X035259Y0534856*
X0352755Y0534406*
X03531Y0533537*
X035328Y0533132*
X0353475Y0532743*
X0353655Y0532368*
X0353835Y0532023*
X0354014Y0531693*
X0354179Y0531408*
X0354314Y0531153*
X0354449Y0530944*
X0354554Y0530779*
X0354629Y0530644*
X0354689Y0530569*
X0354704Y0530539*
X0354449Y0530344*
X0354269Y0530479*
X0354075Y0530584*
X0353895Y0530659*
X035373Y0530719*
X0353595Y0530749*
X035349Y0530764*
X0353385*
X035322Y0530749*
X035301Y0530719*
X035277Y0530674*
X0352545Y0530629*
X0352336Y0530569*
X0352171Y0530524*
X0352096Y0530509*
X0352051Y0530494*
X0352021Y0530479*
X0352006*
Y052874*
X0351016Y052916*
Y0530419*
X0350837Y0530479*
X0350672Y0530554*
X0350522Y0530644*
X0350387Y0530749*
X0350162Y0530974*
X0349982Y0531199*
X0349862Y0531423*
X0349787Y0531618*
X0349757Y0531693*
X0349742Y0531753*
X0349727Y0531783*
Y0531798*
X0350102Y0531933*
X0350177Y0531813*
X0350252Y0531708*
X0350402Y0531528*
X0350567Y0531408*
X0350702Y0531318*
X0350837Y0531274*
X0350927Y0531244*
X0350987Y0531228*
X0351016*
Y0534511*
X0351816Y0534172*
X0351736Y0534302*
X0351541Y0534691*
X0351361Y0535036*
X0351286Y0535201*
X0351211Y0535336*
X0351151Y0535471*
X0351107Y0535576*
X0351062Y0535666*
X0351046Y0535725*
X0351016Y0535771*
Y0535785*
X0351136Y0536025*
X0351421Y053586*
G37*
G36*
X0146697D02*
X0146952Y053571D01*
X0147192Y0535591*
X0147371Y0535486*
X0147521Y0535411*
X0147641Y0535351*
X0147701Y0535321*
X0147731Y0535306*
X0147866Y0534856*
X0148031Y0534406*
X0148376Y0533537*
X0148556Y0533132*
X014875Y0532743*
X014893Y0532368*
X014911Y0532023*
X014929Y0531693*
X0149455Y0531408*
X014959Y0531153*
X0149725Y0530944*
X014983Y0530779*
X0149905Y0530644*
X0149965Y0530569*
X014998Y0530539*
X0149725Y0530344*
X0149545Y0530479*
X014935Y0530584*
X014917Y0530659*
X0149005Y0530719*
X014887Y0530749*
X0148766Y0530764*
X0148661*
X0148496Y0530749*
X0148286Y0530719*
X0148046Y0530674*
X0147821Y0530629*
X0147611Y0530569*
X0147446Y0530524*
X0147371Y0530509*
X0147326Y0530494*
X0147296Y0530479*
X0147281*
Y052874*
X0146292Y052916*
Y0530419*
X0146112Y0530479*
X0145947Y0530554*
X0145797Y0530644*
X0145662Y0530749*
X0145438Y0530974*
X0145258Y0531199*
X0145138Y0531423*
X0145063Y0531618*
X0145033Y0531693*
X0145018Y0531753*
X0145003Y0531783*
Y0531798*
X0145378Y0531933*
X0145453Y0531813*
X0145528Y0531708*
X0145677Y0531528*
X0145842Y0531408*
X0145977Y0531318*
X0146112Y0531274*
X0146202Y0531244*
X0146262Y0531228*
X0146292*
Y0534511*
X0147091Y0534172*
X0147012Y0534302*
X0146817Y0534691*
X0146637Y0535036*
X0146562Y0535201*
X0146487Y0535336*
X0146427Y0535471*
X0146382Y0535576*
X0146337Y0535666*
X0146322Y0535725*
X0146292Y0535771*
Y0535785*
X0146412Y0536025*
X0146697Y053586*
G37*
G36*
X0344376Y0535666D02*
X0344511Y0535441D01*
X0344661Y0535246*
X0344826Y0535081*
X034499Y0534916*
X034517Y0534781*
X0345335Y0534661*
X03455Y0534541*
X034565Y0534451*
X03458Y0534376*
X034592Y0534302*
X034604Y0534257*
X034613Y0534211*
X0346205Y0534181*
X034625Y0534166*
X0346265*
X034607Y0533702*
X03458Y0533762*
X034556Y0533852*
X0345365Y0533942*
X03452Y0534017*
X034508Y0534107*
X0345005Y0534166*
X0344946Y0534211*
X0344931Y0534227*
Y0528845*
X0343941Y0529265*
Y0535741*
X0344241Y053589*
X0344376Y0535666*
G37*
G36*
X0139652D02*
X0139786Y0535441D01*
X0139936Y0535246*
X0140101Y0535081*
X0140266Y0534916*
X0140446Y0534781*
X0140611Y0534661*
X0140776Y0534541*
X0140926Y0534451*
X0141076Y0534376*
X0141195Y0534302*
X0141315Y0534257*
X0141405Y0534211*
X014148Y0534181*
X0141525Y0534166*
X014154*
X0141345Y0533702*
X0141076Y0533762*
X0140836Y0533852*
X0140641Y0533942*
X0140476Y0534017*
X0140356Y0534107*
X0140281Y0534166*
X0140221Y0534211*
X0140206Y0534227*
Y0528845*
X0139217Y0529265*
Y0535741*
X0139517Y053589*
X0139652Y0535666*
G37*
G36*
X0339309D02*
X0339444Y0535441D01*
X0339594Y0535246*
X0339759Y0535081*
X0339924Y0534916*
X0340104Y0534781*
X0340269Y0534661*
X0340434Y0534541*
X0340583Y0534451*
X0340733Y0534376*
X0340853Y0534302*
X0340973Y0534257*
X0341063Y0534211*
X0341138Y0534181*
X0341183Y0534166*
X0341198*
X0341003Y0533702*
X0340733Y0533762*
X0340493Y0533852*
X0340299Y0533942*
X0340134Y0534017*
X0340014Y0534107*
X0339939Y0534166*
X0339879Y0534211*
X0339864Y0534227*
Y0528845*
X0338875Y0529265*
Y0535741*
X0339174Y053589*
X0339309Y0535666*
G37*
G36*
X0134585D02*
X013472Y0535441D01*
X013487Y0535246*
X0135035Y0535081*
X0135199Y0534916*
X0135379Y0534781*
X0135544Y0534661*
X0135709Y0534541*
X0135859Y0534451*
X0136009Y0534376*
X0136129Y0534302*
X0136249Y0534257*
X0136339Y0534211*
X0136414Y0534181*
X0136459Y0534166*
X0136474*
X0136279Y0533702*
X0136009Y0533762*
X0135769Y0533852*
X0135574Y0533942*
X0135409Y0534017*
X013529Y0534107*
X0135214Y0534166*
X0135154Y0534211*
X013514Y0534227*
Y0528845*
X013415Y0529265*
Y0535741*
X013445Y053589*
X0134585Y0535666*
G37*
G36*
X0357897Y0534691D02*
X0358032Y0534496D01*
X0358182Y0534286*
X0358302Y0534047*
X0358422Y0533792*
X0358526Y0533507*
X0358601Y0533222*
X0358646Y0532892*
X0358661Y0532563*
Y0532548*
Y0532503*
Y0532443*
X0358646Y0532368*
Y0532263*
X0358631Y0532143*
X0358601Y0531858*
X0358526Y0531528*
X0358437Y0531199*
X0358317Y0530854*
X0358137Y0530539*
Y0530524*
X0358107Y0530509*
X0358047Y0530419*
X0357927Y0530284*
X0357777Y0530134*
X0357612Y0529984*
X0357402Y0529849*
X0357177Y052976*
X0357057Y0529744*
X0356938Y052973*
X0356908*
X0356848Y0529744*
X0356743Y052976*
X0356608Y0529804*
X0356458Y0529879*
X0356308Y0529984*
X0356143Y0530134*
X0355993Y0530344*
X0355978Y0530374*
X0355933Y0530464*
X0355873Y0530599*
X0355798Y0530794*
X0355723Y0531034*
X0355663Y0531318*
X0355618Y0531663*
X0355604Y0532038*
Y0532053*
Y0532083*
Y0532143*
Y0532218*
X0355618Y0532323*
Y0532428*
X0355663Y0532683*
X0355708Y0532967*
X0355783Y0533252*
X0355888Y0533552*
X0356038Y0533822*
Y0533837*
X0356053Y0533852*
X0356113Y0533927*
X0356203Y0534032*
X0356308Y0534166*
X0356458Y0534286*
X0356623Y0534391*
X0356803Y0534466*
X0356893Y0534496*
X0357028*
X0357132Y0534481*
X0357237Y0534421*
X0357297Y0534391*
X0357357Y0534331*
X0357372Y0534302*
X0357417Y0534227*
X0357477Y0534092*
X0357492Y0533897*
Y0533717*
X0357957Y0533657*
X035779Y053482*
X0357897Y0534691*
G37*
G36*
X0153173D02*
X0153307Y0534496D01*
X0153457Y0534286*
X0153577Y0534047*
X0153697Y0533792*
X0153802Y0533507*
X0153877Y0533222*
X0153922Y0532892*
X0153937Y0532563*
Y0532548*
Y0532503*
Y0532443*
X0153922Y0532368*
Y0532263*
X0153907Y0532143*
X0153877Y0531858*
X0153802Y0531528*
X0153712Y0531199*
X0153592Y0530854*
X0153412Y0530539*
Y0530524*
X0153382Y0530509*
X0153322Y0530419*
X0153202Y0530284*
X0153053Y0530134*
X0152888Y0529984*
X0152678Y0529849*
X0152453Y052976*
X0152333Y0529744*
X0152213Y052973*
X0152183*
X0152123Y0529744*
X0152018Y052976*
X0151883Y0529804*
X0151734Y0529879*
X0151584Y0529984*
X0151419Y0530134*
X0151269Y0530344*
X0151254Y0530374*
X0151209Y0530464*
X0151149Y0530599*
X0151074Y0530794*
X0150999Y0531034*
X0150939Y0531318*
X0150894Y0531663*
X0150879Y0532038*
Y0532053*
Y0532083*
Y0532143*
Y0532218*
X0150894Y0532323*
Y0532428*
X0150939Y0532683*
X0150984Y0532967*
X0151059Y0533252*
X0151164Y0533552*
X0151314Y0533822*
Y0533837*
X0151329Y0533852*
X0151389Y0533927*
X0151479Y0534032*
X0151584Y0534166*
X0151734Y0534286*
X0151898Y0534391*
X0152078Y0534466*
X0152168Y0534496*
X0152303*
X0152408Y0534481*
X0152513Y0534421*
X0152573Y0534391*
X0152633Y0534331*
X0152648Y0534302*
X0152693Y0534227*
X0152753Y0534092*
X0152768Y0533897*
Y0533717*
X0153233Y0533657*
X0153066Y053482*
X0153173Y0534691*
G37*
G36*
X0327347D02*
X0327482Y0534496D01*
X0327632Y0534286*
X0327752Y0534047*
X0327872Y0533792*
X0327977Y0533507*
X0328052Y0533222*
X0328097Y0532892*
X0328112Y0532563*
Y0532548*
Y0532503*
Y0532443*
X0328097Y0532368*
Y0532263*
X0328082Y0532143*
X0328052Y0531858*
X0327977Y0531528*
X0327887Y0531199*
X0327767Y0530854*
X0327587Y0530539*
Y0530524*
X0327557Y0530509*
X0327497Y0530419*
X0327377Y0530284*
X0327227Y0530134*
X0327063Y0529984*
X0326853Y0529849*
X0326628Y052976*
X0326508Y0529744*
X0326388Y052973*
X0326358*
X0326298Y0529744*
X0326193Y052976*
X0326058Y0529804*
X0325908Y0529879*
X0325758Y0529984*
X0325593Y0530134*
X0325444Y0530344*
X0325429Y0530374*
X0325384Y0530464*
X0325324Y0530599*
X0325249Y0530794*
X0325174Y0531034*
X0325114Y0531318*
X0325069Y0531663*
X0325054Y0532038*
Y0532053*
Y0532083*
Y0532143*
Y0532218*
X0325069Y0532323*
Y0532428*
X0325114Y0532683*
X0325159Y0532967*
X0325234Y0533252*
X0325339Y0533552*
X0325488Y0533822*
Y0533837*
X0325503Y0533852*
X0325564Y0533927*
X0325653Y0534032*
X0325758Y0534166*
X0325908Y0534286*
X0326073Y0534391*
X0326253Y0534466*
X0326343Y0534496*
X0326478*
X0326583Y0534481*
X0326688Y0534421*
X0326748Y0534391*
X0326808Y0534331*
X0326823Y0534301*
X0326868Y0534227*
X0326928Y0534092*
X0326943Y0533897*
Y0533717*
X0327407Y0533657*
X032724Y053482*
X0327347Y0534691*
G37*
G36*
X0122623D02*
X0122758Y0534496D01*
X0122908Y0534286*
X0123028Y0534047*
X0123148Y0533792*
X0123252Y0533507*
X0123327Y0533222*
X0123372Y0532892*
X0123387Y0532563*
Y0532548*
Y0532503*
Y0532443*
X0123372Y0532368*
Y0532263*
X0123357Y0532143*
X0123327Y0531858*
X0123252Y0531528*
X0123162Y0531199*
X0123043Y0530854*
X0122863Y0530539*
Y0530524*
X0122833Y0530509*
X0122773Y0530419*
X0122653Y0530284*
X0122503Y0530134*
X0122338Y0529984*
X0122128Y0529849*
X0121903Y052976*
X0121783Y0529744*
X0121663Y052973*
X0121634*
X0121574Y0529744*
X0121469Y052976*
X0121334Y0529804*
X0121184Y0529879*
X0121034Y0529984*
X0120869Y0530134*
X0120719Y0530344*
X0120704Y0530374*
X0120659Y0530464*
X0120599Y0530599*
X0120524Y0530794*
X0120449Y0531034*
X0120389Y0531318*
X0120344Y0531663*
X0120329Y0532038*
Y0532053*
Y0532083*
Y0532143*
Y0532218*
X0120344Y0532323*
Y0532428*
X0120389Y0532683*
X0120434Y0532967*
X0120509Y0533252*
X0120614Y0533552*
X0120764Y0533822*
Y0533837*
X0120779Y0533852*
X0120839Y0533927*
X0120929Y0534032*
X0121034Y0534166*
X0121184Y0534286*
X0121349Y0534391*
X0121529Y0534466*
X0121619Y0534496*
X0121754*
X0121858Y0534481*
X0121963Y0534421*
X0122023Y0534391*
X0122083Y0534331*
X0122098Y0534301*
X0122143Y0534227*
X0122203Y0534092*
X0122218Y0533897*
Y0533717*
X0122683Y0533657*
X0122516Y053482*
X0122623Y0534691*
G37*
G36*
X0332054Y0535666D02*
X0332354Y0535606D01*
X0332624Y0535501*
X0332849Y0535396*
X0333029Y0535291*
X0333163Y0535186*
X0333253Y0535126*
X0333283Y0535096*
X0333493Y0534871*
X0333643Y0534631*
X0333748Y0534391*
X0333823Y0534152*
X0333868Y0533957*
X0333883Y0533807*
X0333898Y0533747*
Y0533702*
Y0533672*
Y0533657*
X0333883Y0533447*
X0333853Y0533267*
X0333793Y0533117*
X0333733Y0532982*
X0333688Y0532877*
X0333628Y0532788*
X0333598Y0532743*
X0333583Y0532727*
X0333463Y0532608*
X0333328Y0532518*
X0333178Y0532458*
X0333059Y0532413*
X0332939Y0532383*
X0332849Y0532368*
X0332759*
X0332579Y0532383*
X0332429Y0532413*
X0332279Y0532458*
X0332174Y0532503*
X0332069Y0532548*
X0332009Y0532593*
X0331964Y0532623*
X0331949Y0532638*
X0331844Y0532758*
X0331769Y0532877*
X0331709Y0532997*
X0331679Y0533117*
X0331649Y0533222*
X0331634Y0533312*
Y0533372*
Y0533387*
Y0533492*
X0331664Y0533582*
X0331724Y0533762*
X0331754Y0533837*
X0331784Y0533897*
X0331799Y0533927*
X0331814Y0533942*
X0332159Y0533837*
Y0533627*
X0332189Y0533507*
X0332234Y0533417*
X0332279Y0533357*
X0332309Y0533327*
X0332429Y0533252*
X0332534Y0533207*
X0332624Y0533192*
X0332669*
X0332744Y0533207*
X0332819Y0533222*
X0332954Y0533297*
X0333029Y0533357*
X0333044Y0533372*
X0333059Y0533387*
X0333119Y0533462*
X0333148Y0533552*
X0333208Y0533732*
Y0533822*
X0333223Y0533882*
Y0533927*
Y0533942*
X0333208Y0534122*
X0333178Y0534271*
X0333119Y0534421*
X0333059Y0534526*
X0332998Y0534631*
X0332939Y0534691*
X0332909Y0534736*
X0332894Y0534751*
X0332759Y0534856*
X0332624Y0534931*
X0332489Y0534991*
X0332354Y0535021*
X0332249Y0535051*
X0332144Y0535066*
X0332069*
X0331889Y0535051*
X0331724Y0535006*
X0331575Y0534931*
X033144Y0534856*
X0331335Y0534766*
X033126Y0534706*
X0331215Y0534646*
X03312Y0534631*
X033108Y0534466*
X033099Y0534302*
X033093Y0534136*
X0330885Y0534002*
X0330855Y0533867*
X033084Y0533762*
Y0533702*
Y0533672*
X0330855Y0533522*
X033087Y0533387*
X0330915Y0533252*
X033096Y0533117*
X0331005Y0533012*
X0331035Y0532937*
X0331065Y0532877*
X033108Y0532862*
X0331185Y0532713*
X0331305Y0532563*
X0331425Y0532428*
X0331559Y0532308*
X0331679Y0532203*
X0331769Y0532128*
X0331829Y0532083*
X0331859Y0532068*
X0332084Y0531903*
X0332309Y0531723*
X0332519Y0531528*
X0332714Y0531333*
X0332894Y0531153*
X0333014Y0531019*
X0333073Y0530959*
X0333103Y0530914*
X0333119Y0530899*
X0333133Y0530884*
X0333253Y0530734*
X0333358Y0530569*
X0333523Y0530239*
X0333658Y0529924*
X0333733Y052961*
X0333793Y052934*
X0333808Y0529235*
X0333823Y052913*
Y052904*
X0333838Y052898*
Y052895*
Y0528935*
X0333403*
X0333358Y052913*
X0333283Y0529265*
X0333193Y052937*
X0333119Y052943*
X0333044Y0529475*
X0332969Y052949*
X0332924Y0529505*
X0332909*
X0332774Y052949*
X0332654Y052946*
X0332564Y052943*
X0332549Y0529415*
X0332534*
X0332339Y052925*
X0332144Y0529115*
X0331949Y0529025*
X0331769Y0528965*
X033162Y0528935*
X03315Y052892*
X0331425Y0528905*
X0331395*
X033117Y052892*
X0330945Y052898*
X033075Y0529055*
X0330585Y052913*
X0330435Y052922*
X0330315Y052928*
X0330255Y052934*
X0330225Y0529355*
X033003Y0529535*
X0329866Y0529744*
X0329746Y0529969*
X0329641Y0530179*
X0329566Y0530374*
X0329521Y0530539*
X0329506Y0530584*
Y0530629*
X0329491Y0530659*
Y0530674*
X0329896Y0530824*
X033Y0530614*
X0330105Y0530449*
X033018Y0530314*
X0330255Y0530209*
X0330315Y0530134*
X033036Y0530074*
X0330375Y0530059*
X033039Y0530044*
X0330555Y0529954*
X0330705Y0529909*
X033078*
X033084Y0529894*
X0330885*
X0330945Y0529909*
X0331035Y0529924*
X033126Y0529984*
X0331365Y0530014*
X0331455Y0530029*
X03315Y0530059*
X0331529*
X0331724Y0530119*
X0331904Y0530179*
X0332069Y0530209*
X0332189Y0530224*
X0332294Y0530239*
X0332384Y0530254*
X0332444*
X0332624Y0530239*
X0332759Y0530209*
X0332879Y0530164*
X0332969Y0530119*
X0333029Y0530074*
X0333073Y0530029*
X0333088Y0529999*
X0333103Y0529984*
X0333044Y0530119*
X0332954Y0530269*
X0332849Y0530419*
X0332714Y0530569*
X0332429Y0530854*
X0332129Y0531109*
X0331844Y0531348*
X0331709Y0531438*
X0331605Y0531528*
X03315Y0531603*
X0331425Y0531648*
X033138Y0531678*
X0331365Y0531693*
X033108Y0531888*
X033084Y0532083*
X0330615Y0532278*
X0330435Y0532473*
X0330285Y0532667*
X033015Y0532847*
X0330046Y0533027*
X0329956Y0533192*
X0329896Y0533342*
X0329851Y0533477*
X0329806Y0533612*
X0329791Y0533717*
X0329776Y0533792*
X0329761Y0533867*
Y0533897*
Y0533912*
X0329791Y0534181*
X0329851Y0534421*
X0329941Y0534631*
X0330046Y0534811*
X0330165Y0534961*
X0330255Y0535081*
X0330315Y0535141*
X0330345Y0535171*
X033057Y0535351*
X033081Y0535471*
X0331035Y0535561*
X033126Y0535636*
X033144Y0535666*
X033159Y053568*
X0331649Y0535696*
X0331724*
X0332054Y0535666*
G37*
G36*
X012733D02*
X012763Y0535606D01*
X0127899Y0535501*
X0128124Y0535396*
X0128304Y0535291*
X0128439Y0535186*
X0128529Y0535126*
X0128559Y0535096*
X0128769Y0534871*
X0128919Y0534631*
X0129024Y0534391*
X0129099Y0534152*
X0129144Y0533957*
X0129158Y0533807*
X0129174Y0533747*
Y0533702*
Y0533672*
Y0533657*
X0129158Y0533447*
X0129129Y0533267*
X0129069Y0533117*
X0129009Y0532982*
X0128964Y0532877*
X0128904Y0532788*
X0128874Y0532743*
X0128859Y0532727*
X0128739Y0532608*
X0128604Y0532518*
X0128454Y0532458*
X0128334Y0532413*
X0128214Y0532383*
X0128124Y0532368*
X0128034*
X0127854Y0532383*
X0127705Y0532413*
X0127555Y0532458*
X012745Y0532503*
X0127345Y0532548*
X0127285Y0532593*
X012724Y0532623*
X0127225Y0532638*
X012712Y0532758*
X0127045Y0532877*
X0126985Y0532997*
X0126955Y0533117*
X0126925Y0533222*
X012691Y0533312*
Y0533372*
Y0533387*
Y0533492*
X012694Y0533582*
X0127Y0533762*
X012703Y0533837*
X012706Y0533897*
X0127075Y0533927*
X012709Y0533942*
X0127435Y0533837*
Y0533627*
X0127465Y0533507*
X012751Y0533417*
X0127555Y0533357*
X0127585Y0533327*
X0127705Y0533252*
X0127809Y0533207*
X0127899Y0533192*
X0127944*
X0128019Y0533207*
X0128094Y0533222*
X0128229Y0533297*
X0128304Y0533357*
X0128319Y0533372*
X0128334Y0533387*
X0128394Y0533462*
X0128424Y0533552*
X0128484Y0533732*
Y0533822*
X0128499Y0533882*
Y0533927*
Y0533942*
X0128484Y0534122*
X0128454Y0534271*
X0128394Y0534421*
X0128334Y0534526*
X0128274Y0534631*
X0128214Y0534691*
X0128184Y0534736*
X0128169Y0534751*
X0128034Y0534856*
X0127899Y0534931*
X0127764Y0534991*
X012763Y0535021*
X0127525Y0535051*
X012742Y0535066*
X0127345*
X0127165Y0535051*
X0127Y0535006*
X012685Y0534931*
X0126715Y0534856*
X012661Y0534766*
X0126535Y0534706*
X012649Y0534646*
X0126475Y0534631*
X0126355Y0534466*
X0126266Y0534302*
X0126206Y0534136*
X0126161Y0534002*
X0126131Y0533867*
X0126116Y0533762*
Y0533702*
Y0533672*
X0126131Y0533522*
X0126146Y0533387*
X012619Y0533252*
X0126235Y0533117*
X012628Y0533012*
X012631Y0532937*
X012634Y0532877*
X0126355Y0532862*
X012646Y0532713*
X012658Y0532563*
X01267Y0532428*
X0126835Y0532308*
X0126955Y0532203*
X0127045Y0532128*
X0127105Y0532083*
X0127135Y0532068*
X012736Y0531903*
X0127585Y0531723*
X0127795Y0531528*
X0127989Y0531333*
X0128169Y0531153*
X0128289Y0531019*
X0128349Y0530959*
X0128379Y0530914*
X0128394Y0530899*
X0128409Y0530884*
X0128529Y0530734*
X0128634Y0530569*
X0128799Y0530239*
X0128934Y0529924*
X0129009Y052961*
X0129069Y052934*
X0129084Y0529235*
X0129099Y052913*
Y052904*
X0129114Y052898*
Y052895*
Y0528935*
X0128679*
X0128634Y052913*
X0128559Y0529265*
X0128469Y052937*
X0128394Y052943*
X0128319Y0529475*
X0128244Y052949*
X0128199Y0529505*
X0128184*
X0128049Y052949*
X0127929Y052946*
X0127839Y052943*
X0127824Y0529415*
X0127809*
X0127615Y052925*
X012742Y0529115*
X0127225Y0529025*
X0127045Y0528965*
X0126895Y0528935*
X0126775Y052892*
X01267Y0528905*
X012667*
X0126445Y052892*
X0126221Y052898*
X0126026Y0529055*
X0125861Y052913*
X0125711Y052922*
X0125591Y052928*
X0125531Y052934*
X0125501Y0529355*
X0125306Y0529535*
X0125141Y0529744*
X0125021Y0529969*
X0124916Y0530179*
X0124841Y0530374*
X0124796Y0530539*
X0124782Y0530584*
Y0530629*
X0124767Y0530659*
Y0530674*
X0125171Y0530824*
X0125276Y0530614*
X0125381Y0530449*
X0125456Y0530314*
X0125531Y0530209*
X0125591Y0530134*
X0125636Y0530074*
X0125651Y0530059*
X0125666Y0530044*
X0125831Y0529954*
X0125981Y0529909*
X0126056*
X0126116Y0529894*
X0126161*
X0126221Y0529909*
X012631Y0529924*
X0126535Y0529984*
X012664Y0530014*
X012673Y0530029*
X0126775Y0530059*
X0126805*
X0127Y0530119*
X012718Y0530179*
X0127345Y0530209*
X0127465Y0530224*
X012757Y0530239*
X0127659Y0530254*
X0127719*
X0127899Y0530239*
X0128034Y0530209*
X0128154Y0530164*
X0128244Y0530119*
X0128304Y0530074*
X0128349Y0530029*
X0128364Y0529999*
X0128379Y0529984*
X0128319Y0530119*
X0128229Y0530269*
X0128124Y0530419*
X0127989Y0530569*
X0127705Y0530854*
X0127405Y0531109*
X012712Y0531348*
X0126985Y0531438*
X012688Y0531528*
X0126775Y0531603*
X01267Y0531648*
X0126655Y0531678*
X012664Y0531693*
X0126355Y0531888*
X0126116Y0532083*
X0125891Y0532278*
X0125711Y0532473*
X0125561Y0532667*
X0125426Y0532847*
X0125321Y0533027*
X0125231Y0533192*
X0125171Y0533342*
X0125126Y0533477*
X0125081Y0533612*
X0125066Y0533717*
X0125051Y0533792*
X0125036Y0533867*
Y0533897*
Y0533912*
X0125066Y0534181*
X0125126Y0534421*
X0125216Y0534631*
X0125321Y0534811*
X0125441Y0534961*
X0125531Y0535081*
X0125591Y0535141*
X0125621Y0535171*
X0125846Y0535351*
X0126086Y0535471*
X012631Y0535561*
X0126535Y0535636*
X0126715Y0535666*
X0126865Y053568*
X0126925Y0535696*
X0127*
X012733Y0535666*
G37*
G36*
X0321921D02*
X0322221Y0535606D01*
X0322491Y0535501*
X0322715Y0535396*
X0322895Y0535291*
X032303Y0535186*
X032312Y0535126*
X032315Y0535096*
X032336Y0534871*
X032351Y0534631*
X0323615Y0534391*
X032369Y0534152*
X0323735Y0533957*
X032375Y0533807*
X0323765Y0533747*
Y0533702*
Y0533672*
Y0533657*
X032375Y0533447*
X032372Y0533267*
X032366Y0533117*
X03236Y0532982*
X0323555Y0532877*
X0323495Y0532787*
X0323465Y0532743*
X032345Y0532727*
X032333Y0532608*
X0323195Y0532518*
X0323045Y0532458*
X0322925Y0532413*
X0322805Y0532383*
X0322715Y0532368*
X0322625*
X0322446Y0532383*
X0322296Y0532413*
X0322146Y0532458*
X0322041Y0532503*
X0321936Y0532548*
X0321876Y0532593*
X0321831Y0532623*
X0321816Y0532638*
X0321711Y0532758*
X0321636Y0532877*
X0321576Y0532997*
X0321546Y0533117*
X0321516Y0533222*
X0321501Y0533312*
Y0533372*
Y0533387*
Y0533492*
X0321531Y0533582*
X0321591Y0533762*
X0321621Y0533837*
X0321651Y0533897*
X0321666Y0533927*
X0321681Y0533942*
X0322026Y0533837*
Y0533627*
X0322056Y0533507*
X0322101Y0533417*
X0322146Y0533357*
X0322176Y0533327*
X0322296Y0533252*
X0322401Y0533207*
X0322491Y0533192*
X0322535*
X032261Y0533207*
X0322685Y0533222*
X032282Y0533297*
X0322895Y0533357*
X032291Y0533372*
X0322925Y0533387*
X0322985Y0533462*
X0323015Y0533552*
X0323075Y0533732*
Y0533822*
X032309Y0533882*
Y0533927*
Y0533942*
X0323075Y0534122*
X0323045Y0534271*
X0322985Y0534421*
X0322925Y0534526*
X0322865Y0534631*
X0322805Y0534691*
X0322775Y0534736*
X032276Y0534751*
X0322625Y0534856*
X0322491Y0534931*
X0322356Y0534991*
X0322221Y0535021*
X0322116Y0535051*
X0322011Y0535066*
X0321936*
X0321756Y0535051*
X0321591Y0535006*
X0321441Y0534931*
X0321306Y0534856*
X0321201Y0534766*
X0321127Y0534706*
X0321081Y0534646*
X0321066Y0534631*
X0320947Y0534466*
X0320857Y0534301*
X0320797Y0534136*
X0320752Y0534002*
X0320722Y0533867*
X0320707Y0533762*
Y0533702*
Y0533672*
X0320722Y0533522*
X0320737Y0533387*
X0320782Y0533252*
X0320827Y0533117*
X0320872Y0533012*
X0320902Y0532937*
X0320932Y0532877*
X0320947Y0532862*
X0321052Y0532713*
X0321171Y0532563*
X0321291Y0532428*
X0321426Y0532308*
X0321546Y0532203*
X0321636Y0532128*
X0321696Y0532083*
X0321726Y0532068*
X0321951Y0531903*
X0322176Y0531723*
X0322386Y0531528*
X0322581Y0531333*
X032276Y0531153*
X032288Y0531019*
X032294Y0530959*
X032297Y0530914*
X0322985Y0530899*
X0323Y0530884*
X032312Y0530734*
X0323225Y0530569*
X032339Y0530239*
X0323525Y0529924*
X03236Y052961*
X032366Y052934*
X0323675Y0529235*
X032369Y052913*
Y052904*
X0323705Y052898*
Y052895*
Y0528935*
X032327*
X0323225Y052913*
X032315Y0529265*
X032306Y052937*
X0322985Y052943*
X032291Y0529475*
X0322835Y052949*
X032279Y0529505*
X0322775*
X032264Y052949*
X032252Y052946*
X0322431Y052943*
X0322416Y0529415*
X0322401*
X0322206Y052925*
X0322011Y0529115*
X0321816Y0529025*
X0321636Y0528965*
X0321486Y0528935*
X0321366Y052892*
X0321291Y0528905*
X0321261*
X0321037Y052892*
X0320812Y052898*
X0320617Y0529055*
X0320452Y052913*
X0320302Y052922*
X0320182Y052928*
X0320122Y052934*
X0320092Y0529355*
X0319897Y0529535*
X0319732Y0529744*
X0319613Y0529969*
X0319508Y0530179*
X0319433Y0530374*
X0319388Y0530539*
X0319373Y0530584*
Y0530629*
X0319358Y0530659*
Y0530674*
X0319762Y0530824*
X0319867Y0530614*
X0319972Y0530449*
X0320047Y0530314*
X0320122Y0530209*
X0320182Y0530134*
X0320227Y0530074*
X0320242Y0530059*
X0320257Y0530044*
X0320422Y0529954*
X0320572Y0529909*
X0320647*
X0320707Y0529894*
X0320752*
X0320812Y0529909*
X0320902Y0529924*
X0321127Y0529984*
X0321231Y0530014*
X0321321Y0530029*
X0321366Y0530059*
X0321396*
X0321591Y0530119*
X0321771Y0530179*
X0321936Y0530209*
X0322056Y0530224*
X0322161Y0530239*
X0322251Y0530254*
X0322311*
X0322491Y0530239*
X0322625Y0530209*
X0322745Y0530164*
X0322835Y0530119*
X0322895Y0530074*
X032294Y0530029*
X0322955Y0529999*
X032297Y0529984*
X032291Y0530119*
X032282Y0530269*
X0322715Y0530419*
X0322581Y0530569*
X0322296Y0530854*
X0321996Y0531109*
X0321711Y0531348*
X0321576Y0531438*
X0321471Y0531528*
X0321366Y0531603*
X0321291Y0531648*
X0321246Y0531678*
X0321231Y0531693*
X0320947Y0531888*
X0320707Y0532083*
X0320482Y0532278*
X0320302Y0532473*
X0320152Y0532667*
X0320017Y0532847*
X0319912Y0533027*
X0319822Y0533192*
X0319762Y0533342*
X0319717Y0533477*
X0319672Y0533612*
X0319657Y0533717*
X0319642Y0533792*
X0319627Y0533867*
Y0533897*
Y0533912*
X0319657Y0534181*
X0319717Y0534421*
X0319807Y0534631*
X0319912Y0534811*
X0320032Y0534961*
X0320122Y0535081*
X0320182Y0535141*
X0320212Y0535171*
X0320437Y0535351*
X0320677Y0535471*
X0320902Y0535561*
X0321127Y0535636*
X0321306Y0535666*
X0321456Y053568*
X0321516Y0535696*
X0321591*
X0321921Y0535666*
G37*
G36*
X0117197D02*
X0117496Y0535606D01*
X0117766Y0535501*
X0117991Y0535396*
X0118171Y0535291*
X0118306Y0535186*
X0118396Y0535126*
X0118426Y0535096*
X0118636Y0534871*
X0118786Y0534631*
X011889Y0534391*
X0118965Y0534152*
X011901Y0533957*
X0119025Y0533807*
X011904Y0533747*
Y0533702*
Y0533672*
Y0533657*
X0119025Y0533447*
X0118995Y0533267*
X0118935Y0533117*
X0118875Y0532982*
X011883Y0532877*
X0118771Y0532787*
X011874Y0532743*
X0118726Y0532727*
X0118606Y0532608*
X0118471Y0532518*
X0118321Y0532458*
X0118201Y0532413*
X0118081Y0532383*
X0117991Y0532368*
X0117901*
X0117721Y0532383*
X0117571Y0532413*
X0117421Y0532458*
X0117316Y0532503*
X0117211Y0532548*
X0117151Y0532593*
X0117107Y0532623*
X0117092Y0532638*
X0116987Y0532758*
X0116912Y0532877*
X0116852Y0532997*
X0116822Y0533117*
X0116792Y0533222*
X0116777Y0533312*
Y0533372*
Y0533387*
Y0533492*
X0116807Y0533582*
X0116867Y0533762*
X0116897Y0533837*
X0116927Y0533897*
X0116942Y0533927*
X0116957Y0533942*
X0117301Y0533837*
Y0533627*
X0117331Y0533507*
X0117376Y0533417*
X0117421Y0533357*
X0117451Y0533327*
X0117571Y0533252*
X0117676Y0533207*
X0117766Y0533192*
X0117811*
X0117886Y0533207*
X0117961Y0533222*
X0118096Y0533297*
X0118171Y0533357*
X0118186Y0533372*
X0118201Y0533387*
X0118261Y0533462*
X0118291Y0533552*
X0118351Y0533732*
Y0533822*
X0118366Y0533882*
Y0533927*
Y0533942*
X0118351Y0534122*
X0118321Y0534271*
X0118261Y0534421*
X0118201Y0534526*
X0118141Y0534631*
X0118081Y0534691*
X0118051Y0534736*
X0118036Y0534751*
X0117901Y0534856*
X0117766Y0534931*
X0117631Y0534991*
X0117496Y0535021*
X0117391Y0535051*
X0117287Y0535066*
X0117211*
X0117032Y0535051*
X0116867Y0535006*
X0116717Y0534931*
X0116582Y0534856*
X0116477Y0534766*
X0116402Y0534706*
X0116357Y0534646*
X0116342Y0534631*
X0116222Y0534466*
X0116132Y0534301*
X0116072Y0534136*
X0116027Y0534002*
X0115997Y0533867*
X0115982Y0533762*
Y0533702*
Y0533672*
X0115997Y0533522*
X0116012Y0533387*
X0116057Y0533252*
X0116102Y0533117*
X0116147Y0533012*
X0116177Y0532937*
X0116207Y0532877*
X0116222Y0532862*
X0116327Y0532713*
X0116447Y0532563*
X0116567Y0532428*
X0116702Y0532308*
X0116822Y0532203*
X0116912Y0532128*
X0116972Y0532083*
X0117002Y0532068*
X0117227Y0531903*
X0117451Y0531723*
X0117661Y0531528*
X0117856Y0531333*
X0118036Y0531153*
X0118156Y0531019*
X0118216Y0530959*
X0118246Y0530914*
X0118261Y0530899*
X0118276Y0530884*
X0118396Y0530734*
X0118501Y0530569*
X0118666Y0530239*
X01188Y0529924*
X0118875Y052961*
X0118935Y052934*
X011895Y0529235*
X0118965Y052913*
Y052904*
X011898Y052898*
Y052895*
Y0528935*
X0118546*
X0118501Y052913*
X0118426Y0529265*
X0118336Y052937*
X0118261Y052943*
X0118186Y0529475*
X0118111Y052949*
X0118066Y0529505*
X0118051*
X0117916Y052949*
X0117796Y052946*
X0117706Y052943*
X0117691Y0529415*
X0117676*
X0117481Y052925*
X0117287Y0529115*
X0117092Y0529025*
X0116912Y0528965*
X0116762Y0528935*
X0116642Y052892*
X0116567Y0528905*
X0116537*
X0116312Y052892*
X0116087Y052898*
X0115892Y0529055*
X0115727Y052913*
X0115578Y052922*
X0115458Y052928*
X0115398Y052934*
X0115368Y0529355*
X0115173Y0529535*
X0115008Y0529744*
X0114888Y0529969*
X0114783Y0530179*
X0114708Y0530374*
X0114663Y0530539*
X0114648Y0530584*
Y0530629*
X0114633Y0530659*
Y0530674*
X0115038Y0530824*
X0115143Y0530614*
X0115248Y0530449*
X0115323Y0530314*
X0115398Y0530209*
X0115458Y0530134*
X0115503Y0530074*
X0115518Y0530059*
X0115533Y0530044*
X0115698Y0529954*
X0115847Y0529909*
X0115922*
X0115982Y0529894*
X0116027*
X0116087Y0529909*
X0116177Y0529924*
X0116402Y0529984*
X0116507Y0530014*
X0116597Y0530029*
X0116642Y0530059*
X0116672*
X0116867Y0530119*
X0117047Y0530179*
X0117211Y0530209*
X0117331Y0530224*
X0117436Y0530239*
X0117526Y0530254*
X0117586*
X0117766Y0530239*
X0117901Y0530209*
X0118021Y0530164*
X0118111Y0530119*
X0118171Y0530074*
X0118216Y0530029*
X0118231Y0529999*
X0118246Y0529984*
X0118186Y0530119*
X0118096Y0530269*
X0117991Y0530419*
X0117856Y0530569*
X0117571Y0530854*
X0117271Y0531109*
X0116987Y0531348*
X0116852Y0531438*
X0116747Y0531528*
X0116642Y0531603*
X0116567Y0531648*
X0116522Y0531678*
X0116507Y0531693*
X0116222Y0531888*
X0115982Y0532083*
X0115758Y0532278*
X0115578Y0532473*
X0115428Y0532667*
X0115293Y0532847*
X0115188Y0533027*
X0115098Y0533192*
X0115038Y0533342*
X0114993Y0533477*
X0114948Y0533612*
X0114933Y0533717*
X0114918Y0533792*
X0114903Y0533867*
Y0533897*
Y0533912*
X0114933Y0534181*
X0114993Y0534421*
X0115083Y0534631*
X0115188Y0534811*
X0115308Y0534961*
X0115398Y0535081*
X0115458Y0535141*
X0115488Y0535171*
X0115712Y0535351*
X0115952Y0535471*
X0116177Y0535561*
X0116402Y0535636*
X0116582Y0535666*
X0116732Y053568*
X0116792Y0535696*
X0116867*
X0117197Y0535666*
G37*
G36*
X0316854D02*
X0317154Y0535606D01*
X0317424Y0535501*
X0317649Y0535396*
X0317829Y0535291*
X0317964Y0535186*
X0318054Y0535126*
X0318084Y0535096*
X0318293Y0534871*
X0318443Y0534631*
X0318548Y0534391*
X0318623Y0534152*
X0318668Y0533957*
X0318683Y0533807*
X0318698Y0533747*
Y0533702*
Y0533672*
Y0533657*
X0318683Y0533447*
X0318653Y0533267*
X0318593Y0533117*
X0318533Y0532982*
X0318488Y0532877*
X0318428Y0532787*
X0318398Y0532743*
X0318383Y0532727*
X0318263Y0532608*
X0318128Y0532518*
X0317979Y0532458*
X0317859Y0532413*
X0317739Y0532383*
X0317649Y0532368*
X0317559*
X0317379Y0532383*
X0317229Y0532413*
X0317079Y0532458*
X0316974Y0532503*
X0316869Y0532548*
X0316809Y0532593*
X0316764Y0532623*
X0316749Y0532638*
X0316645Y0532758*
X0316569Y0532877*
X031651Y0532997*
X031648Y0533117*
X031645Y0533222*
X0316435Y0533312*
Y0533372*
Y0533387*
Y0533492*
X0316465Y0533582*
X0316525Y0533762*
X0316554Y0533837*
X0316584Y0533897*
X0316599Y0533927*
X0316615Y0533942*
X0316959Y0533837*
Y0533627*
X0316989Y0533507*
X0317034Y0533417*
X0317079Y0533357*
X0317109Y0533327*
X0317229Y0533252*
X0317334Y0533207*
X0317424Y0533192*
X0317469*
X0317544Y0533207*
X0317619Y0533222*
X0317754Y0533297*
X0317829Y0533357*
X0317844Y0533372*
X0317859Y0533387*
X0317919Y0533462*
X0317949Y0533552*
X0318008Y0533732*
Y0533822*
X0318023Y0533882*
Y0533927*
Y0533942*
X0318008Y0534122*
X0317979Y0534271*
X0317919Y0534421*
X0317859Y0534526*
X0317799Y0534631*
X0317739Y0534691*
X0317709Y0534736*
X0317694Y0534751*
X0317559Y0534856*
X0317424Y0534931*
X0317289Y0534991*
X0317154Y0535021*
X0317049Y0535051*
X0316944Y0535066*
X0316869*
X0316689Y0535051*
X0316525Y0535006*
X0316375Y0534931*
X031624Y0534856*
X0316135Y0534766*
X031606Y0534706*
X0316015Y0534646*
X0316Y0534631*
X031588Y0534466*
X031579Y0534301*
X031573Y0534136*
X0315685Y0534002*
X0315655Y0533867*
X031564Y0533762*
Y0533702*
Y0533672*
X0315655Y0533522*
X031567Y0533387*
X0315715Y0533252*
X031576Y0533117*
X0315805Y0533012*
X0315835Y0532937*
X0315865Y0532877*
X031588Y0532862*
X0315985Y0532713*
X0316105Y0532563*
X0316225Y0532428*
X031636Y0532308*
X031648Y0532203*
X0316569Y0532128*
X031663Y0532083*
X0316659Y0532068*
X0316884Y0531903*
X0317109Y0531723*
X0317319Y0531528*
X0317514Y0531333*
X0317694Y0531153*
X0317814Y0531019*
X0317874Y0530959*
X0317904Y0530914*
X0317919Y0530899*
X0317934Y0530884*
X0318054Y0530734*
X0318158Y0530569*
X0318323Y0530239*
X0318458Y0529924*
X0318533Y052961*
X0318593Y052934*
X0318608Y0529235*
X0318623Y052913*
Y052904*
X0318638Y052898*
Y052895*
Y0528935*
X0318203*
X0318158Y052913*
X0318084Y0529265*
X0317994Y052937*
X0317919Y052943*
X0317844Y0529475*
X0317769Y052949*
X0317724Y0529505*
X0317709*
X0317574Y052949*
X0317454Y052946*
X0317364Y052943*
X0317349Y0529415*
X0317334*
X0317139Y052925*
X0316944Y0529115*
X0316749Y0529025*
X0316569Y0528965*
X031642Y0528935*
X03163Y052892*
X0316225Y0528905*
X0316195*
X031597Y052892*
X0315745Y052898*
X031555Y0529055*
X0315385Y052913*
X0315235Y052922*
X0315115Y052928*
X0315055Y052934*
X0315025Y0529355*
X0314831Y0529535*
X0314666Y0529744*
X0314546Y0529969*
X0314441Y0530179*
X0314366Y0530374*
X0314321Y0530539*
X0314306Y0530584*
Y0530629*
X0314291Y0530659*
Y0530674*
X0314696Y0530824*
X0314801Y0530614*
X0314906Y0530449*
X0314981Y0530314*
X0315055Y0530209*
X0315115Y0530134*
X031516Y0530074*
X0315175Y0530059*
X031519Y0530044*
X0315355Y0529954*
X0315505Y0529909*
X031558*
X031564Y0529894*
X0315685*
X0315745Y0529909*
X0315835Y0529924*
X031606Y0529984*
X0316165Y0530014*
X0316255Y0530029*
X03163Y0530059*
X031633*
X0316525Y0530119*
X0316704Y0530179*
X0316869Y0530209*
X0316989Y0530224*
X0317094Y0530239*
X0317184Y0530254*
X0317244*
X0317424Y0530239*
X0317559Y0530209*
X0317679Y0530164*
X0317769Y0530119*
X0317829Y0530074*
X0317874Y0530029*
X0317889Y0529999*
X0317904Y0529984*
X0317844Y0530119*
X0317754Y0530269*
X0317649Y0530419*
X0317514Y0530569*
X0317229Y0530854*
X0316929Y0531109*
X0316645Y0531348*
X031651Y0531438*
X0316405Y0531528*
X03163Y0531603*
X0316225Y0531648*
X031618Y0531678*
X0316165Y0531693*
X031588Y0531888*
X031564Y0532083*
X0315415Y0532278*
X0315235Y0532473*
X0315086Y0532667*
X0314951Y0532847*
X0314846Y0533027*
X0314756Y0533192*
X0314696Y0533342*
X0314651Y0533477*
X0314606Y0533612*
X0314591Y0533717*
X0314576Y0533792*
X0314561Y0533867*
Y0533897*
Y0533912*
X0314591Y0534181*
X0314651Y0534421*
X0314741Y0534631*
X0314846Y0534811*
X0314966Y0534961*
X0315055Y0535081*
X0315115Y0535141*
X0315145Y0535171*
X031537Y0535351*
X031561Y0535471*
X0315835Y0535561*
X031606Y0535636*
X031624Y0535666*
X031639Y053568*
X031645Y0535696*
X0316525*
X0316854Y0535666*
G37*
G36*
X011213D02*
X011243Y0535606D01*
X0112699Y0535501*
X0112924Y0535396*
X0113104Y0535291*
X0113239Y0535186*
X0113329Y0535126*
X0113359Y0535096*
X0113569Y0534871*
X0113719Y0534631*
X0113824Y0534391*
X0113899Y0534152*
X0113944Y0533957*
X0113959Y0533807*
X0113974Y0533747*
Y0533702*
Y0533672*
Y0533657*
X0113959Y0533447*
X0113929Y0533267*
X0113869Y0533117*
X0113809Y0532982*
X0113764Y0532877*
X0113704Y0532787*
X0113674Y0532743*
X0113659Y0532727*
X0113539Y0532608*
X0113404Y0532518*
X0113254Y0532458*
X0113134Y0532413*
X0113014Y0532383*
X0112924Y0532368*
X0112834*
X0112654Y0532383*
X0112505Y0532413*
X0112355Y0532458*
X011225Y0532503*
X0112145Y0532548*
X0112085Y0532593*
X011204Y0532623*
X0112025Y0532638*
X011192Y0532758*
X0111845Y0532877*
X0111785Y0532997*
X0111755Y0533117*
X0111725Y0533222*
X011171Y0533312*
Y0533372*
Y0533387*
Y0533492*
X011174Y0533582*
X01118Y0533762*
X011183Y0533837*
X011186Y0533897*
X0111875Y0533927*
X011189Y0533942*
X0112235Y0533837*
Y0533627*
X0112265Y0533507*
X011231Y0533417*
X0112355Y0533357*
X0112385Y0533327*
X0112505Y0533252*
X011261Y0533207*
X0112699Y0533192*
X0112744*
X0112819Y0533207*
X0112894Y0533222*
X0113029Y0533297*
X0113104Y0533357*
X0113119Y0533372*
X0113134Y0533387*
X0113194Y0533462*
X0113224Y0533552*
X0113284Y0533732*
Y0533822*
X0113299Y0533882*
Y0533927*
Y0533942*
X0113284Y0534122*
X0113254Y0534271*
X0113194Y0534421*
X0113134Y0534526*
X0113074Y0534631*
X0113014Y0534691*
X0112984Y0534736*
X0112969Y0534751*
X0112834Y0534856*
X0112699Y0534931*
X0112565Y0534991*
X011243Y0535021*
X0112325Y0535051*
X011222Y0535066*
X0112145*
X0111965Y0535051*
X01118Y0535006*
X011165Y0534931*
X0111515Y0534856*
X011141Y0534766*
X0111335Y0534706*
X0111291Y0534646*
X0111275Y0534631*
X0111155Y0534466*
X0111066Y0534301*
X0111006Y0534136*
X0110961Y0534002*
X0110931Y0533867*
X0110916Y0533762*
Y0533702*
Y0533672*
X0110931Y0533522*
X0110946Y0533387*
X0110991Y0533252*
X0111036Y0533117*
X0111081Y0533012*
X0111111Y0532937*
X0111141Y0532877*
X0111155Y0532862*
X011126Y0532713*
X011138Y0532563*
X01115Y0532428*
X0111635Y0532308*
X0111755Y0532203*
X0111845Y0532128*
X0111905Y0532083*
X0111935Y0532068*
X011216Y0531903*
X0112385Y0531723*
X0112595Y0531528*
X0112789Y0531333*
X0112969Y0531153*
X0113089Y0531019*
X0113149Y0530959*
X0113179Y0530914*
X0113194Y0530899*
X0113209Y0530884*
X0113329Y0530734*
X0113434Y0530569*
X0113599Y0530239*
X0113734Y0529924*
X0113809Y052961*
X0113869Y052934*
X0113884Y0529235*
X0113899Y052913*
Y052904*
X0113914Y052898*
Y052895*
Y0528935*
X0113479*
X0113434Y052913*
X0113359Y0529265*
X0113269Y052937*
X0113194Y052943*
X0113119Y0529475*
X0113044Y052949*
X0112999Y0529505*
X0112984*
X0112849Y052949*
X011273Y052946*
X011264Y052943*
X0112625Y0529415*
X011261*
X0112415Y052925*
X011222Y0529115*
X0112025Y0529025*
X0111845Y0528965*
X0111695Y0528935*
X0111575Y052892*
X01115Y0528905*
X011147*
X0111246Y052892*
X0111021Y052898*
X0110826Y0529055*
X0110661Y052913*
X0110511Y052922*
X0110391Y052928*
X0110331Y052934*
X0110301Y0529355*
X0110106Y0529535*
X0109941Y0529744*
X0109821Y0529969*
X0109716Y0530179*
X0109642Y0530374*
X0109597Y0530539*
X0109582Y0530584*
Y0530629*
X0109567Y0530659*
Y0530674*
X0109971Y0530824*
X0110076Y0530614*
X0110181Y0530449*
X0110256Y0530314*
X0110331Y0530209*
X0110391Y0530134*
X0110436Y0530074*
X0110451Y0530059*
X0110466Y0530044*
X0110631Y0529954*
X0110781Y0529909*
X0110856*
X0110916Y0529894*
X0110961*
X0111021Y0529909*
X0111111Y0529924*
X0111335Y0529984*
X011144Y0530014*
X011153Y0530029*
X0111575Y0530059*
X0111605*
X01118Y0530119*
X011198Y0530179*
X0112145Y0530209*
X0112265Y0530224*
X011237Y0530239*
X011246Y0530254*
X011252*
X0112699Y0530239*
X0112834Y0530209*
X0112954Y0530164*
X0113044Y0530119*
X0113104Y0530074*
X0113149Y0530029*
X0113164Y0529999*
X0113179Y0529984*
X0113119Y0530119*
X0113029Y0530269*
X0112924Y0530419*
X0112789Y0530569*
X0112505Y0530854*
X0112205Y0531109*
X011192Y0531348*
X0111785Y0531438*
X011168Y0531528*
X0111575Y0531603*
X01115Y0531648*
X0111455Y0531678*
X011144Y0531693*
X0111155Y0531888*
X0110916Y0532083*
X0110691Y0532278*
X0110511Y0532473*
X0110361Y0532667*
X0110226Y0532847*
X0110121Y0533027*
X0110031Y0533192*
X0109971Y0533342*
X0109926Y0533477*
X0109881Y0533612*
X0109866Y0533717*
X0109851Y0533792*
X0109836Y0533867*
Y0533897*
Y0533912*
X0109866Y0534181*
X0109926Y0534421*
X0110016Y0534631*
X0110121Y0534811*
X0110241Y0534961*
X0110331Y0535081*
X0110391Y0535141*
X0110421Y0535171*
X0110646Y0535351*
X0110886Y0535471*
X0111111Y0535561*
X0111335Y0535636*
X0111515Y0535666*
X0111665Y053568*
X0111725Y0535696*
X01118*
X011213Y0535666*
G37*
G36*
X0348978Y052952D02*
X0348258Y0528785D01*
X0347509Y052955*
X0348258Y0530329*
X0348978Y052952*
G37*
G36*
X0144254D02*
X0143534Y0528785D01*
X0142784Y052955*
X0143534Y0530329*
X0144254Y052952*
G37*
G36*
X0336236D02*
X0335517Y0528785D01*
X0334767Y052955*
X0335517Y0530329*
X0336236Y052952*
G37*
G36*
X0131512D02*
X0130792Y0528785D01*
X0130043Y052955*
X0130792Y0530329*
X0131512Y052952*
G37*
G36*
X0351421Y0252396D02*
X0351676Y0252246D01*
X0351916Y0252126*
X0352096Y0252021*
X0352246Y0251946*
X0352366Y0251886*
X0352426Y0251856*
X0352456Y0251841*
X035259Y0251392*
X0352755Y0250942*
X03531Y0250072*
X035328Y0249668*
X0353475Y0249278*
X0353655Y0248903*
X0353835Y0248558*
X0354014Y0248229*
X0354179Y0247944*
X0354314Y0247689*
X0354449Y0247479*
X0354554Y0247314*
X0354629Y0247179*
X0354689Y0247104*
X0354704Y0247074*
X0354449Y024688*
X0354269Y0247014*
X0354075Y0247119*
X0353895Y0247194*
X035373Y0247254*
X0353595Y0247284*
X035349Y0247299*
X0353385*
X035322Y0247284*
X035301Y0247254*
X035277Y0247209*
X0352545Y0247164*
X0352336Y0247104*
X0352171Y0247059*
X0352096Y0247044*
X0352051Y0247029*
X0352021Y0247014*
X0352006*
Y0245276*
X0351016Y0245695*
Y0246954*
X0350837Y0247014*
X0350672Y0247089*
X0350522Y0247179*
X0350387Y0247284*
X0350162Y0247509*
X0349982Y0247734*
X0349862Y0247959*
X0349787Y0248154*
X0349757Y0248229*
X0349742Y0248289*
X0349727Y0248319*
Y0248334*
X0350102Y0248468*
X0350177Y0248348*
X0350252Y0248244*
X0350402Y0248064*
X0350567Y0247944*
X0350702Y0247854*
X0350837Y0247809*
X0350927Y0247779*
X0350987Y0247764*
X0351016*
Y0251047*
X0351816Y0250708*
X0351736Y0250837*
X0351541Y0251227*
X0351361Y0251571*
X0351286Y0251736*
X0351211Y0251871*
X0351151Y0252006*
X0351107Y0252111*
X0351062Y0252201*
X0351046Y0252261*
X0351016Y0252306*
Y0252321*
X0351136Y0252561*
X0351421Y0252396*
G37*
G36*
X0146697D02*
X0146952Y0252246D01*
X0147192Y0252126*
X0147371Y0252021*
X0147521Y0251946*
X0147641Y0251886*
X0147701Y0251856*
X0147731Y0251841*
X0147866Y0251392*
X0148031Y0250942*
X0148376Y0250072*
X0148556Y0249668*
X014875Y0249278*
X014893Y0248903*
X014911Y0248558*
X014929Y0248229*
X0149455Y0247944*
X014959Y0247689*
X0149725Y0247479*
X014983Y0247314*
X0149905Y0247179*
X0149965Y0247104*
X014998Y0247074*
X0149725Y024688*
X0149545Y0247014*
X014935Y0247119*
X014917Y0247194*
X0149005Y0247254*
X014887Y0247284*
X0148766Y0247299*
X0148661*
X0148496Y0247284*
X0148286Y0247254*
X0148046Y0247209*
X0147821Y0247164*
X0147611Y0247104*
X0147446Y0247059*
X0147371Y0247044*
X0147326Y0247029*
X0147296Y0247014*
X0147281*
Y0245276*
X0146292Y0245695*
Y0246954*
X0146112Y0247014*
X0145947Y0247089*
X0145797Y0247179*
X0145662Y0247284*
X0145438Y0247509*
X0145258Y0247734*
X0145138Y0247959*
X0145063Y0248154*
X0145033Y0248229*
X0145018Y0248289*
X0145003Y0248319*
Y0248334*
X0145378Y0248468*
X0145453Y0248348*
X0145528Y0248244*
X0145677Y0248064*
X0145842Y0247944*
X0145977Y0247854*
X0146112Y0247809*
X0146202Y0247779*
X0146262Y0247764*
X0146292*
Y0251047*
X0147091Y0250708*
X0147012Y0250837*
X0146817Y0251227*
X0146637Y0251571*
X0146562Y0251736*
X0146487Y0251871*
X0146427Y0252006*
X0146382Y0252111*
X0146337Y0252201*
X0146322Y0252261*
X0146292Y0252306*
Y0252321*
X0146412Y0252561*
X0146697Y0252396*
G37*
G36*
X0344376Y0252201D02*
X0344511Y0251976D01*
X0344661Y0251781*
X0344826Y0251616*
X034499Y0251451*
X034517Y0251317*
X0345335Y0251197*
X03455Y0251077*
X034565Y0250987*
X03458Y0250912*
X034592Y0250837*
X034604Y0250792*
X034613Y0250747*
X0346205Y0250717*
X034625Y0250702*
X0346265*
X034607Y0250237*
X03458Y0250297*
X034556Y0250387*
X0345365Y0250477*
X03452Y0250552*
X034508Y0250642*
X0345005Y0250702*
X0344946Y0250747*
X0344931Y0250762*
Y024538*
X0343941Y02458*
Y0252276*
X0344241Y0252426*
X0344376Y0252201*
G37*
G36*
X0139652D02*
X0139786Y0251976D01*
X0139936Y0251781*
X0140101Y0251616*
X0140266Y0251451*
X0140446Y0251317*
X0140611Y0251197*
X0140776Y0251077*
X0140926Y0250987*
X0141076Y0250912*
X0141195Y0250837*
X0141315Y0250792*
X0141405Y0250747*
X014148Y0250717*
X0141525Y0250702*
X014154*
X0141345Y0250237*
X0141076Y0250297*
X0140836Y0250387*
X0140641Y0250477*
X0140476Y0250552*
X0140356Y0250642*
X0140281Y0250702*
X0140221Y0250747*
X0140206Y0250762*
Y024538*
X0139217Y02458*
Y0252276*
X0139517Y0252426*
X0139652Y0252201*
G37*
G36*
X0339309D02*
X0339444Y0251976D01*
X0339594Y0251781*
X0339759Y0251616*
X0339924Y0251451*
X0340104Y0251317*
X0340269Y0251197*
X0340434Y0251077*
X0340583Y0250987*
X0340733Y0250912*
X0340853Y0250837*
X0340973Y0250792*
X0341063Y0250747*
X0341138Y0250717*
X0341183Y0250702*
X0341198*
X0341003Y0250237*
X0340733Y0250297*
X0340493Y0250387*
X0340299Y0250477*
X0340134Y0250552*
X0340014Y0250642*
X0339939Y0250702*
X0339879Y0250747*
X0339864Y0250762*
Y024538*
X0338875Y02458*
Y0252276*
X0339174Y0252426*
X0339309Y0252201*
G37*
G36*
X0134585D02*
X013472Y0251976D01*
X013487Y0251781*
X0135035Y0251616*
X0135199Y0251451*
X0135379Y0251317*
X0135544Y0251197*
X0135709Y0251077*
X0135859Y0250987*
X0136009Y0250912*
X0136129Y0250837*
X0136249Y0250792*
X0136339Y0250747*
X0136414Y0250717*
X0136459Y0250702*
X0136474*
X0136279Y0250237*
X0136009Y0250297*
X0135769Y0250387*
X0135574Y0250477*
X0135409Y0250552*
X013529Y0250642*
X0135214Y0250702*
X0135154Y0250747*
X013514Y0250762*
Y024538*
X013415Y02458*
Y0252276*
X013445Y0252426*
X0134585Y0252201*
G37*
G36*
X0357897Y0251227D02*
X0358032Y0251032D01*
X0358182Y0250822*
X0358302Y0250582*
X0358422Y0250327*
X0358526Y0250042*
X0358601Y0249758*
X0358646Y0249428*
X0358661Y0249098*
Y0249083*
Y0249038*
Y0248978*
X0358646Y0248903*
Y0248798*
X0358631Y0248678*
X0358601Y0248394*
X0358526Y0248064*
X0358437Y0247734*
X0358317Y0247389*
X0358137Y0247074*
Y0247059*
X0358107Y0247044*
X0358047Y0246954*
X0357927Y024682*
X0357777Y024667*
X0357612Y024652*
X0357402Y0246385*
X0357177Y0246295*
X0357057Y024628*
X0356938Y0246265*
X0356908*
X0356848Y024628*
X0356743Y0246295*
X0356608Y024634*
X0356458Y0246415*
X0356308Y024652*
X0356143Y024667*
X0355993Y024688*
X0355978Y0246909*
X0355933Y0246999*
X0355873Y0247134*
X0355798Y0247329*
X0355723Y0247569*
X0355663Y0247854*
X0355618Y0248199*
X0355604Y0248573*
Y0248588*
Y0248618*
Y0248678*
Y0248753*
X0355618Y0248858*
Y0248963*
X0355663Y0249218*
X0355708Y0249503*
X0355783Y0249788*
X0355888Y0250087*
X0356038Y0250357*
Y0250372*
X0356053Y0250387*
X0356113Y0250462*
X0356203Y0250567*
X0356308Y0250702*
X0356458Y0250822*
X0356623Y0250927*
X0356803Y0251002*
X0356893Y0251032*
X0357028*
X0357132Y0251017*
X0357237Y0250957*
X0357297Y0250927*
X0357357Y0250867*
X0357372Y0250837*
X0357417Y0250762*
X0357477Y0250627*
X0357492Y0250432*
Y0250252*
X0357957Y0250192*
X035779Y0251355*
X0357897Y0251227*
G37*
G36*
X0153173D02*
X0153307Y0251032D01*
X0153457Y0250822*
X0153577Y0250582*
X0153697Y0250327*
X0153802Y0250042*
X0153877Y0249758*
X0153922Y0249428*
X0153937Y0249098*
Y0249083*
Y0249038*
Y0248978*
X0153922Y0248903*
Y0248798*
X0153907Y0248678*
X0153877Y0248394*
X0153802Y0248064*
X0153712Y0247734*
X0153592Y0247389*
X0153412Y0247074*
Y0247059*
X0153382Y0247044*
X0153322Y0246954*
X0153202Y024682*
X0153053Y024667*
X0152888Y024652*
X0152678Y0246385*
X0152453Y0246295*
X0152333Y024628*
X0152213Y0246265*
X0152183*
X0152123Y024628*
X0152018Y0246295*
X0151883Y024634*
X0151734Y0246415*
X0151584Y024652*
X0151419Y024667*
X0151269Y024688*
X0151254Y0246909*
X0151209Y0246999*
X0151149Y0247134*
X0151074Y0247329*
X0150999Y0247569*
X0150939Y0247854*
X0150894Y0248199*
X0150879Y0248573*
Y0248588*
Y0248618*
Y0248678*
Y0248753*
X0150894Y0248858*
Y0248963*
X0150939Y0249218*
X0150984Y0249503*
X0151059Y0249788*
X0151164Y0250087*
X0151314Y0250357*
Y0250372*
X0151329Y0250387*
X0151389Y0250462*
X0151479Y0250567*
X0151584Y0250702*
X0151734Y0250822*
X0151898Y0250927*
X0152078Y0251002*
X0152168Y0251032*
X0152303*
X0152408Y0251017*
X0152513Y0250957*
X0152573Y0250927*
X0152633Y0250867*
X0152648Y0250837*
X0152693Y0250762*
X0152753Y0250627*
X0152768Y0250432*
Y0250252*
X0153233Y0250192*
X0153066Y0251355*
X0153173Y0251227*
G37*
G36*
X0327347D02*
X0327482Y0251032D01*
X0327632Y0250822*
X0327752Y0250582*
X0327872Y0250327*
X0327977Y0250042*
X0328052Y0249758*
X0328097Y0249428*
X0328112Y0249098*
Y0249083*
Y0249038*
Y0248978*
X0328097Y0248903*
Y0248798*
X0328082Y0248678*
X0328052Y0248394*
X0327977Y0248064*
X0327887Y0247734*
X0327767Y0247389*
X0327587Y0247074*
Y0247059*
X0327557Y0247044*
X0327497Y0246954*
X0327377Y0246819*
X0327227Y024667*
X0327063Y024652*
X0326853Y0246385*
X0326628Y0246295*
X0326508Y024628*
X0326388Y0246265*
X0326358*
X0326298Y024628*
X0326193Y0246295*
X0326058Y024634*
X0325908Y0246415*
X0325758Y024652*
X0325593Y024667*
X0325444Y024688*
X0325429Y0246909*
X0325384Y0246999*
X0325324Y0247134*
X0325249Y0247329*
X0325174Y0247569*
X0325114Y0247854*
X0325069Y0248199*
X0325054Y0248573*
Y0248588*
Y0248618*
Y0248678*
Y0248753*
X0325069Y0248858*
Y0248963*
X0325114Y0249218*
X0325159Y0249503*
X0325234Y0249788*
X0325339Y0250087*
X0325488Y0250357*
Y0250372*
X0325503Y0250387*
X0325564Y0250462*
X0325653Y0250567*
X0325758Y0250702*
X0325908Y0250822*
X0326073Y0250927*
X0326253Y0251002*
X0326343Y0251032*
X0326478*
X0326583Y0251017*
X0326688Y0250957*
X0326748Y0250927*
X0326808Y0250867*
X0326823Y0250837*
X0326868Y0250762*
X0326928Y0250627*
X0326943Y0250432*
Y0250252*
X0327407Y0250192*
X032724Y0251355*
X0327347Y0251227*
G37*
G36*
X0122623D02*
X0122758Y0251032D01*
X0122908Y0250822*
X0123028Y0250582*
X0123148Y0250327*
X0123252Y0250042*
X0123327Y0249758*
X0123372Y0249428*
X0123387Y0249098*
Y0249083*
Y0249038*
Y0248978*
X0123372Y0248903*
Y0248798*
X0123357Y0248678*
X0123327Y0248394*
X0123252Y0248064*
X0123162Y0247734*
X0123043Y0247389*
X0122863Y0247074*
Y0247059*
X0122833Y0247044*
X0122773Y0246954*
X0122653Y0246819*
X0122503Y024667*
X0122338Y024652*
X0122128Y0246385*
X0121903Y0246295*
X0121783Y024628*
X0121663Y0246265*
X0121634*
X0121574Y024628*
X0121469Y0246295*
X0121334Y024634*
X0121184Y0246415*
X0121034Y024652*
X0120869Y024667*
X0120719Y024688*
X0120704Y0246909*
X0120659Y0246999*
X0120599Y0247134*
X0120524Y0247329*
X0120449Y0247569*
X0120389Y0247854*
X0120344Y0248199*
X0120329Y0248573*
Y0248588*
Y0248618*
Y0248678*
Y0248753*
X0120344Y0248858*
Y0248963*
X0120389Y0249218*
X0120434Y0249503*
X0120509Y0249788*
X0120614Y0250087*
X0120764Y0250357*
Y0250372*
X0120779Y0250387*
X0120839Y0250462*
X0120929Y0250567*
X0121034Y0250702*
X0121184Y0250822*
X0121349Y0250927*
X0121529Y0251002*
X0121619Y0251032*
X0121754*
X0121858Y0251017*
X0121963Y0250957*
X0122023Y0250927*
X0122083Y0250867*
X0122098Y0250837*
X0122143Y0250762*
X0122203Y0250627*
X0122218Y0250432*
Y0250252*
X0122683Y0250192*
X0122516Y0251355*
X0122623Y0251227*
G37*
G36*
X0332054Y0252201D02*
X0332354Y0252141D01*
X0332624Y0252036*
X0332849Y0251931*
X0333029Y0251826*
X0333163Y0251721*
X0333253Y0251661*
X0333283Y0251631*
X0333493Y0251407*
X0333643Y0251167*
X0333748Y0250927*
X0333823Y0250687*
X0333868Y0250492*
X0333883Y0250342*
X0333898Y0250282*
Y0250237*
Y0250207*
Y0250192*
X0333883Y0249983*
X0333853Y0249803*
X0333793Y0249653*
X0333733Y0249518*
X0333688Y0249413*
X0333628Y0249323*
X0333598Y0249278*
X0333583Y0249263*
X0333463Y0249143*
X0333328Y0249053*
X0333178Y0248993*
X0333059Y0248948*
X0332939Y0248918*
X0332849Y0248903*
X0332759*
X0332579Y0248918*
X0332429Y0248948*
X0332279Y0248993*
X0332174Y0249038*
X0332069Y0249083*
X0332009Y0249128*
X0331964Y0249158*
X0331949Y0249173*
X0331844Y0249293*
X0331769Y0249413*
X0331709Y0249533*
X0331679Y0249653*
X0331649Y0249758*
X0331634Y0249848*
Y0249907*
Y0249922*
Y0250027*
X0331664Y0250117*
X0331724Y0250297*
X0331754Y0250372*
X0331784Y0250432*
X0331799Y0250462*
X0331814Y0250477*
X0332159Y0250372*
Y0250162*
X0332189Y0250042*
X0332234Y0249953*
X0332279Y0249892*
X0332309Y0249863*
X0332429Y0249788*
X0332534Y0249743*
X0332624Y0249728*
X0332669*
X0332744Y0249743*
X0332819Y0249758*
X0332954Y0249833*
X0333029Y0249892*
X0333044Y0249907*
X0333059Y0249922*
X0333119Y0249997*
X0333148Y0250087*
X0333208Y0250267*
Y0250357*
X0333223Y0250417*
Y0250462*
Y0250477*
X0333208Y0250657*
X0333178Y0250807*
X0333119Y0250957*
X0333059Y0251062*
X0332998Y0251167*
X0332939Y0251227*
X0332909Y0251272*
X0332894Y0251287*
X0332759Y0251392*
X0332624Y0251466*
X0332489Y0251526*
X0332354Y0251556*
X0332249Y0251586*
X0332144Y0251601*
X0332069*
X0331889Y0251586*
X0331724Y0251541*
X0331575Y0251466*
X033144Y0251392*
X0331335Y0251302*
X033126Y0251242*
X0331215Y0251182*
X03312Y0251167*
X033108Y0251002*
X033099Y0250837*
X033093Y0250672*
X0330885Y0250537*
X0330855Y0250402*
X033084Y0250297*
Y0250237*
Y0250207*
X0330855Y0250057*
X033087Y0249922*
X0330915Y0249788*
X033096Y0249653*
X0331005Y0249548*
X0331035Y0249473*
X0331065Y0249413*
X033108Y0249398*
X0331185Y0249248*
X0331305Y0249098*
X0331425Y0248963*
X0331559Y0248843*
X0331679Y0248738*
X0331769Y0248663*
X0331829Y0248618*
X0331859Y0248603*
X0332084Y0248439*
X0332309Y0248259*
X0332519Y0248064*
X0332714Y0247869*
X0332894Y0247689*
X0333014Y0247554*
X0333073Y0247494*
X0333103Y0247449*
X0333119Y0247434*
X0333133Y0247419*
X0333253Y0247269*
X0333358Y0247104*
X0333523Y0246775*
X0333658Y024646*
X0333733Y0246145*
X0333793Y0245875*
X0333808Y024577*
X0333823Y0245665*
Y0245575*
X0333838Y0245515*
Y0245485*
Y024547*
X0333403*
X0333358Y0245665*
X0333283Y02458*
X0333193Y0245905*
X0333119Y0245965*
X0333044Y024601*
X0332969Y0246025*
X0332924Y024604*
X0332909*
X0332774Y0246025*
X0332654Y0245995*
X0332564Y0245965*
X0332549Y024595*
X0332534*
X0332339Y0245785*
X0332144Y024565*
X0331949Y024556*
X0331769Y02455*
X033162Y024547*
X03315Y0245456*
X0331425Y0245441*
X0331395*
X033117Y0245456*
X0330945Y0245515*
X033075Y024559*
X0330585Y0245665*
X0330435Y0245755*
X0330315Y0245815*
X0330255Y0245875*
X0330225Y024589*
X033003Y024607*
X0329866Y024628*
X0329746Y0246505*
X0329641Y0246715*
X0329566Y0246909*
X0329521Y0247074*
X0329506Y0247119*
Y0247164*
X0329491Y0247194*
Y0247209*
X0329896Y0247359*
X033Y0247149*
X0330105Y0246984*
X033018Y0246849*
X0330255Y0246745*
X0330315Y024667*
X033036Y024661*
X0330375Y0246595*
X033039Y024658*
X0330555Y024649*
X0330705Y0246445*
X033078*
X033084Y024643*
X0330885*
X0330945Y0246445*
X0331035Y024646*
X033126Y024652*
X0331365Y024655*
X0331455Y0246565*
X03315Y0246595*
X0331529*
X0331724Y0246655*
X0331904Y0246715*
X0332069Y0246745*
X0332189Y024676*
X0332294Y0246775*
X0332384Y024679*
X0332444*
X0332624Y0246775*
X0332759Y0246745*
X0332879Y02467*
X0332969Y0246655*
X0333029Y024661*
X0333073Y0246565*
X0333088Y0246535*
X0333103Y024652*
X0333044Y0246655*
X0332954Y0246805*
X0332849Y0246954*
X0332714Y0247104*
X0332429Y0247389*
X0332129Y0247644*
X0331844Y0247884*
X0331709Y0247974*
X0331605Y0248064*
X03315Y0248139*
X0331425Y0248184*
X033138Y0248214*
X0331365Y0248229*
X033108Y0248424*
X033084Y0248618*
X0330615Y0248813*
X0330435Y0249008*
X0330285Y0249203*
X033015Y0249383*
X0330046Y0249563*
X0329956Y0249728*
X0329896Y0249878*
X0329851Y0250012*
X0329806Y0250147*
X0329791Y0250252*
X0329776Y0250327*
X0329761Y0250402*
Y0250432*
Y0250447*
X0329791Y0250717*
X0329851Y0250957*
X0329941Y0251167*
X0330046Y0251346*
X0330165Y0251496*
X0330255Y0251616*
X0330315Y0251676*
X0330345Y0251706*
X033057Y0251886*
X033081Y0252006*
X0331035Y0252096*
X033126Y0252171*
X033144Y0252201*
X033159Y0252216*
X0331649Y0252231*
X0331724*
X0332054Y0252201*
G37*
G36*
X012733D02*
X012763Y0252141D01*
X0127899Y0252036*
X0128124Y0251931*
X0128304Y0251826*
X0128439Y0251721*
X0128529Y0251661*
X0128559Y0251631*
X0128769Y0251407*
X0128919Y0251167*
X0129024Y0250927*
X0129099Y0250687*
X0129144Y0250492*
X0129158Y0250342*
X0129174Y0250282*
Y0250237*
Y0250207*
Y0250192*
X0129158Y0249983*
X0129129Y0249803*
X0129069Y0249653*
X0129009Y0249518*
X0128964Y0249413*
X0128904Y0249323*
X0128874Y0249278*
X0128859Y0249263*
X0128739Y0249143*
X0128604Y0249053*
X0128454Y0248993*
X0128334Y0248948*
X0128214Y0248918*
X0128124Y0248903*
X0128034*
X0127854Y0248918*
X0127705Y0248948*
X0127555Y0248993*
X012745Y0249038*
X0127345Y0249083*
X0127285Y0249128*
X012724Y0249158*
X0127225Y0249173*
X012712Y0249293*
X0127045Y0249413*
X0126985Y0249533*
X0126955Y0249653*
X0126925Y0249758*
X012691Y0249848*
Y0249907*
Y0249922*
Y0250027*
X012694Y0250117*
X0127Y0250297*
X012703Y0250372*
X012706Y0250432*
X0127075Y0250462*
X012709Y0250477*
X0127435Y0250372*
Y0250162*
X0127465Y0250042*
X012751Y0249953*
X0127555Y0249892*
X0127585Y0249863*
X0127705Y0249788*
X0127809Y0249743*
X0127899Y0249728*
X0127944*
X0128019Y0249743*
X0128094Y0249758*
X0128229Y0249833*
X0128304Y0249892*
X0128319Y0249907*
X0128334Y0249922*
X0128394Y0249997*
X0128424Y0250087*
X0128484Y0250267*
Y0250357*
X0128499Y0250417*
Y0250462*
Y0250477*
X0128484Y0250657*
X0128454Y0250807*
X0128394Y0250957*
X0128334Y0251062*
X0128274Y0251167*
X0128214Y0251227*
X0128184Y0251272*
X0128169Y0251287*
X0128034Y0251392*
X0127899Y0251466*
X0127764Y0251526*
X012763Y0251556*
X0127525Y0251586*
X012742Y0251601*
X0127345*
X0127165Y0251586*
X0127Y0251541*
X012685Y0251466*
X0126715Y0251392*
X012661Y0251302*
X0126535Y0251242*
X012649Y0251182*
X0126475Y0251167*
X0126355Y0251002*
X0126266Y0250837*
X0126206Y0250672*
X0126161Y0250537*
X0126131Y0250402*
X0126116Y0250297*
Y0250237*
Y0250207*
X0126131Y0250057*
X0126146Y0249922*
X012619Y0249788*
X0126235Y0249653*
X012628Y0249548*
X012631Y0249473*
X012634Y0249413*
X0126355Y0249398*
X012646Y0249248*
X012658Y0249098*
X01267Y0248963*
X0126835Y0248843*
X0126955Y0248738*
X0127045Y0248663*
X0127105Y0248618*
X0127135Y0248603*
X012736Y0248439*
X0127585Y0248259*
X0127795Y0248064*
X0127989Y0247869*
X0128169Y0247689*
X0128289Y0247554*
X0128349Y0247494*
X0128379Y0247449*
X0128394Y0247434*
X0128409Y0247419*
X0128529Y0247269*
X0128634Y0247104*
X0128799Y0246775*
X0128934Y024646*
X0129009Y0246145*
X0129069Y0245875*
X0129084Y024577*
X0129099Y0245665*
Y0245575*
X0129114Y0245515*
Y0245485*
Y024547*
X0128679*
X0128634Y0245665*
X0128559Y02458*
X0128469Y0245905*
X0128394Y0245965*
X0128319Y024601*
X0128244Y0246025*
X0128199Y024604*
X0128184*
X0128049Y0246025*
X0127929Y0245995*
X0127839Y0245965*
X0127824Y024595*
X0127809*
X0127615Y0245785*
X012742Y024565*
X0127225Y024556*
X0127045Y02455*
X0126895Y024547*
X0126775Y0245456*
X01267Y0245441*
X012667*
X0126445Y0245456*
X0126221Y0245515*
X0126026Y024559*
X0125861Y0245665*
X0125711Y0245755*
X0125591Y0245815*
X0125531Y0245875*
X0125501Y024589*
X0125306Y024607*
X0125141Y024628*
X0125021Y0246505*
X0124916Y0246715*
X0124841Y0246909*
X0124796Y0247074*
X0124782Y0247119*
Y0247164*
X0124767Y0247194*
Y0247209*
X0125171Y0247359*
X0125276Y0247149*
X0125381Y0246984*
X0125456Y0246849*
X0125531Y0246745*
X0125591Y024667*
X0125636Y024661*
X0125651Y0246595*
X0125666Y024658*
X0125831Y024649*
X0125981Y0246445*
X0126056*
X0126116Y024643*
X0126161*
X0126221Y0246445*
X012631Y024646*
X0126535Y024652*
X012664Y024655*
X012673Y0246565*
X0126775Y0246595*
X0126805*
X0127Y0246655*
X012718Y0246715*
X0127345Y0246745*
X0127465Y024676*
X012757Y0246775*
X0127659Y024679*
X0127719*
X0127899Y0246775*
X0128034Y0246745*
X0128154Y02467*
X0128244Y0246655*
X0128304Y024661*
X0128349Y0246565*
X0128364Y0246535*
X0128379Y024652*
X0128319Y0246655*
X0128229Y0246805*
X0128124Y0246954*
X0127989Y0247104*
X0127705Y0247389*
X0127405Y0247644*
X012712Y0247884*
X0126985Y0247974*
X012688Y0248064*
X0126775Y0248139*
X01267Y0248184*
X0126655Y0248214*
X012664Y0248229*
X0126355Y0248424*
X0126116Y0248618*
X0125891Y0248813*
X0125711Y0249008*
X0125561Y0249203*
X0125426Y0249383*
X0125321Y0249563*
X0125231Y0249728*
X0125171Y0249878*
X0125126Y0250012*
X0125081Y0250147*
X0125066Y0250252*
X0125051Y0250327*
X0125036Y0250402*
Y0250432*
Y0250447*
X0125066Y0250717*
X0125126Y0250957*
X0125216Y0251167*
X0125321Y0251346*
X0125441Y0251496*
X0125531Y0251616*
X0125591Y0251676*
X0125621Y0251706*
X0125846Y0251886*
X0126086Y0252006*
X012631Y0252096*
X0126535Y0252171*
X0126715Y0252201*
X0126865Y0252216*
X0126925Y0252231*
X0127*
X012733Y0252201*
G37*
G36*
X0321921D02*
X0322221Y0252141D01*
X0322491Y0252036*
X0322715Y0251931*
X0322895Y0251826*
X032303Y0251721*
X032312Y0251661*
X032315Y0251631*
X032336Y0251407*
X032351Y0251167*
X0323615Y0250927*
X032369Y0250687*
X0323735Y0250492*
X032375Y0250342*
X0323765Y0250282*
Y0250237*
Y0250207*
Y0250192*
X032375Y0249982*
X032372Y0249803*
X032366Y0249653*
X03236Y0249518*
X0323555Y0249413*
X0323495Y0249323*
X0323465Y0249278*
X032345Y0249263*
X032333Y0249143*
X0323195Y0249053*
X0323045Y0248993*
X0322925Y0248948*
X0322805Y0248918*
X0322715Y0248903*
X0322625*
X0322446Y0248918*
X0322296Y0248948*
X0322146Y0248993*
X0322041Y0249038*
X0321936Y0249083*
X0321876Y0249128*
X0321831Y0249158*
X0321816Y0249173*
X0321711Y0249293*
X0321636Y0249413*
X0321576Y0249533*
X0321546Y0249653*
X0321516Y0249758*
X0321501Y0249848*
Y0249907*
Y0249922*
Y0250027*
X0321531Y0250117*
X0321591Y0250297*
X0321621Y0250372*
X0321651Y0250432*
X0321666Y0250462*
X0321681Y0250477*
X0322026Y0250372*
Y0250162*
X0322056Y0250042*
X0322101Y0249953*
X0322146Y0249892*
X0322176Y0249863*
X0322296Y0249788*
X0322401Y0249743*
X0322491Y0249728*
X0322535*
X032261Y0249743*
X0322685Y0249758*
X032282Y0249833*
X0322895Y0249892*
X032291Y0249907*
X0322925Y0249922*
X0322985Y0249997*
X0323015Y0250087*
X0323075Y0250267*
Y0250357*
X032309Y0250417*
Y0250462*
Y0250477*
X0323075Y0250657*
X0323045Y0250807*
X0322985Y0250957*
X0322925Y0251062*
X0322865Y0251167*
X0322805Y0251227*
X0322775Y0251272*
X032276Y0251287*
X0322625Y0251392*
X0322491Y0251466*
X0322356Y0251526*
X0322221Y0251556*
X0322116Y0251586*
X0322011Y0251601*
X0321936*
X0321756Y0251586*
X0321591Y0251541*
X0321441Y0251466*
X0321306Y0251392*
X0321201Y0251302*
X0321127Y0251242*
X0321081Y0251182*
X0321066Y0251167*
X0320947Y0251002*
X0320857Y0250837*
X0320797Y0250672*
X0320752Y0250537*
X0320722Y0250402*
X0320707Y0250297*
Y0250237*
Y0250207*
X0320722Y0250057*
X0320737Y0249922*
X0320782Y0249788*
X0320827Y0249653*
X0320872Y0249548*
X0320902Y0249473*
X0320932Y0249413*
X0320947Y0249398*
X0321052Y0249248*
X0321171Y0249098*
X0321291Y0248963*
X0321426Y0248843*
X0321546Y0248738*
X0321636Y0248663*
X0321696Y0248618*
X0321726Y0248603*
X0321951Y0248439*
X0322176Y0248259*
X0322386Y0248064*
X0322581Y0247869*
X032276Y0247689*
X032288Y0247554*
X032294Y0247494*
X032297Y0247449*
X0322985Y0247434*
X0323Y0247419*
X032312Y0247269*
X0323225Y0247104*
X032339Y0246775*
X0323525Y024646*
X03236Y0246145*
X032366Y0245875*
X0323675Y024577*
X032369Y0245665*
Y0245575*
X0323705Y0245515*
Y0245485*
Y024547*
X032327*
X0323225Y0245665*
X032315Y02458*
X032306Y0245905*
X0322985Y0245965*
X032291Y024601*
X0322835Y0246025*
X032279Y024604*
X0322775*
X032264Y0246025*
X032252Y0245995*
X0322431Y0245965*
X0322416Y024595*
X0322401*
X0322206Y0245785*
X0322011Y024565*
X0321816Y024556*
X0321636Y02455*
X0321486Y024547*
X0321366Y0245456*
X0321291Y0245441*
X0321261*
X0321037Y0245456*
X0320812Y0245515*
X0320617Y024559*
X0320452Y0245665*
X0320302Y0245755*
X0320182Y0245815*
X0320122Y0245875*
X0320092Y024589*
X0319897Y024607*
X0319732Y024628*
X0319613Y0246505*
X0319508Y0246715*
X0319433Y0246909*
X0319388Y0247074*
X0319373Y0247119*
Y0247164*
X0319358Y0247194*
Y0247209*
X0319762Y0247359*
X0319867Y0247149*
X0319972Y0246984*
X0320047Y0246849*
X0320122Y0246745*
X0320182Y024667*
X0320227Y024661*
X0320242Y0246595*
X0320257Y024658*
X0320422Y024649*
X0320572Y0246445*
X0320647*
X0320707Y024643*
X0320752*
X0320812Y0246445*
X0320902Y024646*
X0321127Y024652*
X0321231Y024655*
X0321321Y0246565*
X0321366Y0246595*
X0321396*
X0321591Y0246655*
X0321771Y0246715*
X0321936Y0246745*
X0322056Y024676*
X0322161Y0246775*
X0322251Y024679*
X0322311*
X0322491Y0246775*
X0322625Y0246745*
X0322745Y02467*
X0322835Y0246655*
X0322895Y024661*
X032294Y0246565*
X0322955Y0246535*
X032297Y024652*
X032291Y0246655*
X032282Y0246805*
X0322715Y0246954*
X0322581Y0247104*
X0322296Y0247389*
X0321996Y0247644*
X0321711Y0247884*
X0321576Y0247974*
X0321471Y0248064*
X0321366Y0248139*
X0321291Y0248184*
X0321246Y0248214*
X0321231Y0248229*
X0320947Y0248424*
X0320707Y0248618*
X0320482Y0248813*
X0320302Y0249008*
X0320152Y0249203*
X0320017Y0249383*
X0319912Y0249563*
X0319822Y0249728*
X0319762Y0249878*
X0319717Y0250012*
X0319672Y0250147*
X0319657Y0250252*
X0319642Y0250327*
X0319627Y0250402*
Y0250432*
Y0250447*
X0319657Y0250717*
X0319717Y0250957*
X0319807Y0251167*
X0319912Y0251346*
X0320032Y0251496*
X0320122Y0251616*
X0320182Y0251676*
X0320212Y0251706*
X0320437Y0251886*
X0320677Y0252006*
X0320902Y0252096*
X0321127Y0252171*
X0321306Y0252201*
X0321456Y0252216*
X0321516Y0252231*
X0321591*
X0321921Y0252201*
G37*
G36*
X0117197D02*
X0117496Y0252141D01*
X0117766Y0252036*
X0117991Y0251931*
X0118171Y0251826*
X0118306Y0251721*
X0118396Y0251661*
X0118426Y0251631*
X0118636Y0251407*
X0118786Y0251167*
X011889Y0250927*
X0118965Y0250687*
X011901Y0250492*
X0119025Y0250342*
X011904Y0250282*
Y0250237*
Y0250207*
Y0250192*
X0119025Y0249982*
X0118995Y0249803*
X0118935Y0249653*
X0118875Y0249518*
X011883Y0249413*
X0118771Y0249323*
X011874Y0249278*
X0118726Y0249263*
X0118606Y0249143*
X0118471Y0249053*
X0118321Y0248993*
X0118201Y0248948*
X0118081Y0248918*
X0117991Y0248903*
X0117901*
X0117721Y0248918*
X0117571Y0248948*
X0117421Y0248993*
X0117316Y0249038*
X0117211Y0249083*
X0117151Y0249128*
X0117107Y0249158*
X0117092Y0249173*
X0116987Y0249293*
X0116912Y0249413*
X0116852Y0249533*
X0116822Y0249653*
X0116792Y0249758*
X0116777Y0249848*
Y0249907*
Y0249922*
Y0250027*
X0116807Y0250117*
X0116867Y0250297*
X0116897Y0250372*
X0116927Y0250432*
X0116942Y0250462*
X0116957Y0250477*
X0117301Y0250372*
Y0250162*
X0117331Y0250042*
X0117376Y0249953*
X0117421Y0249892*
X0117451Y0249863*
X0117571Y0249788*
X0117676Y0249743*
X0117766Y0249728*
X0117811*
X0117886Y0249743*
X0117961Y0249758*
X0118096Y0249833*
X0118171Y0249892*
X0118186Y0249907*
X0118201Y0249922*
X0118261Y0249997*
X0118291Y0250087*
X0118351Y0250267*
Y0250357*
X0118366Y0250417*
Y0250462*
Y0250477*
X0118351Y0250657*
X0118321Y0250807*
X0118261Y0250957*
X0118201Y0251062*
X0118141Y0251167*
X0118081Y0251227*
X0118051Y0251272*
X0118036Y0251287*
X0117901Y0251392*
X0117766Y0251466*
X0117631Y0251526*
X0117496Y0251556*
X0117391Y0251586*
X0117287Y0251601*
X0117211*
X0117032Y0251586*
X0116867Y0251541*
X0116717Y0251466*
X0116582Y0251392*
X0116477Y0251302*
X0116402Y0251242*
X0116357Y0251182*
X0116342Y0251167*
X0116222Y0251002*
X0116132Y0250837*
X0116072Y0250672*
X0116027Y0250537*
X0115997Y0250402*
X0115982Y0250297*
Y0250237*
Y0250207*
X0115997Y0250057*
X0116012Y0249922*
X0116057Y0249788*
X0116102Y0249653*
X0116147Y0249548*
X0116177Y0249473*
X0116207Y0249413*
X0116222Y0249398*
X0116327Y0249248*
X0116447Y0249098*
X0116567Y0248963*
X0116702Y0248843*
X0116822Y0248738*
X0116912Y0248663*
X0116972Y0248618*
X0117002Y0248603*
X0117227Y0248439*
X0117451Y0248259*
X0117661Y0248064*
X0117856Y0247869*
X0118036Y0247689*
X0118156Y0247554*
X0118216Y0247494*
X0118246Y0247449*
X0118261Y0247434*
X0118276Y0247419*
X0118396Y0247269*
X0118501Y0247104*
X0118666Y0246775*
X01188Y024646*
X0118875Y0246145*
X0118935Y0245875*
X011895Y024577*
X0118965Y0245665*
Y0245575*
X011898Y0245515*
Y0245485*
Y024547*
X0118546*
X0118501Y0245665*
X0118426Y02458*
X0118336Y0245905*
X0118261Y0245965*
X0118186Y024601*
X0118111Y0246025*
X0118066Y024604*
X0118051*
X0117916Y0246025*
X0117796Y0245995*
X0117706Y0245965*
X0117691Y024595*
X0117676*
X0117481Y0245785*
X0117287Y024565*
X0117092Y024556*
X0116912Y02455*
X0116762Y024547*
X0116642Y0245456*
X0116567Y0245441*
X0116537*
X0116312Y0245456*
X0116087Y0245515*
X0115892Y024559*
X0115727Y0245665*
X0115578Y0245755*
X0115458Y0245815*
X0115398Y0245875*
X0115368Y024589*
X0115173Y024607*
X0115008Y024628*
X0114888Y0246505*
X0114783Y0246715*
X0114708Y0246909*
X0114663Y0247074*
X0114648Y0247119*
Y0247164*
X0114633Y0247194*
Y0247209*
X0115038Y0247359*
X0115143Y0247149*
X0115248Y0246984*
X0115323Y0246849*
X0115398Y0246745*
X0115458Y024667*
X0115503Y024661*
X0115518Y0246595*
X0115533Y024658*
X0115698Y024649*
X0115847Y0246445*
X0115922*
X0115982Y024643*
X0116027*
X0116087Y0246445*
X0116177Y024646*
X0116402Y024652*
X0116507Y024655*
X0116597Y0246565*
X0116642Y0246595*
X0116672*
X0116867Y0246655*
X0117047Y0246715*
X0117211Y0246745*
X0117331Y024676*
X0117436Y0246775*
X0117526Y024679*
X0117586*
X0117766Y0246775*
X0117901Y0246745*
X0118021Y02467*
X0118111Y0246655*
X0118171Y024661*
X0118216Y0246565*
X0118231Y0246535*
X0118246Y024652*
X0118186Y0246655*
X0118096Y0246805*
X0117991Y0246954*
X0117856Y0247104*
X0117571Y0247389*
X0117271Y0247644*
X0116987Y0247884*
X0116852Y0247974*
X0116747Y0248064*
X0116642Y0248139*
X0116567Y0248184*
X0116522Y0248214*
X0116507Y0248229*
X0116222Y0248424*
X0115982Y0248618*
X0115758Y0248813*
X0115578Y0249008*
X0115428Y0249203*
X0115293Y0249383*
X0115188Y0249563*
X0115098Y0249728*
X0115038Y0249878*
X0114993Y0250012*
X0114948Y0250147*
X0114933Y0250252*
X0114918Y0250327*
X0114903Y0250402*
Y0250432*
Y0250447*
X0114933Y0250717*
X0114993Y0250957*
X0115083Y0251167*
X0115188Y0251346*
X0115308Y0251496*
X0115398Y0251616*
X0115458Y0251676*
X0115488Y0251706*
X0115712Y0251886*
X0115952Y0252006*
X0116177Y0252096*
X0116402Y0252171*
X0116582Y0252201*
X0116732Y0252216*
X0116792Y0252231*
X0116867*
X0117197Y0252201*
G37*
G36*
X0316854D02*
X0317154Y0252141D01*
X0317424Y0252036*
X0317649Y0251931*
X0317829Y0251826*
X0317964Y0251721*
X0318054Y0251661*
X0318084Y0251631*
X0318293Y0251407*
X0318443Y0251167*
X0318548Y0250927*
X0318623Y0250687*
X0318668Y0250492*
X0318683Y0250342*
X0318698Y0250282*
Y0250237*
Y0250207*
Y0250192*
X0318683Y0249982*
X0318653Y0249803*
X0318593Y0249653*
X0318533Y0249518*
X0318488Y0249413*
X0318428Y0249323*
X0318398Y0249278*
X0318383Y0249263*
X0318263Y0249143*
X0318128Y0249053*
X0317979Y0248993*
X0317859Y0248948*
X0317739Y0248918*
X0317649Y0248903*
X0317559*
X0317379Y0248918*
X0317229Y0248948*
X0317079Y0248993*
X0316974Y0249038*
X0316869Y0249083*
X0316809Y0249128*
X0316764Y0249158*
X0316749Y0249173*
X0316645Y0249293*
X0316569Y0249413*
X031651Y0249533*
X031648Y0249653*
X031645Y0249758*
X0316435Y0249848*
Y0249907*
Y0249922*
Y0250027*
X0316465Y0250117*
X0316525Y0250297*
X0316554Y0250372*
X0316584Y0250432*
X0316599Y0250462*
X0316615Y0250477*
X0316959Y0250372*
Y0250162*
X0316989Y0250042*
X0317034Y0249953*
X0317079Y0249892*
X0317109Y0249863*
X0317229Y0249788*
X0317334Y0249743*
X0317424Y0249728*
X0317469*
X0317544Y0249743*
X0317619Y0249758*
X0317754Y0249833*
X0317829Y0249892*
X0317844Y0249907*
X0317859Y0249922*
X0317919Y0249997*
X0317949Y0250087*
X0318008Y0250267*
Y0250357*
X0318023Y0250417*
Y0250462*
Y0250477*
X0318008Y0250657*
X0317979Y0250807*
X0317919Y0250957*
X0317859Y0251062*
X0317799Y0251167*
X0317739Y0251227*
X0317709Y0251272*
X0317694Y0251287*
X0317559Y0251392*
X0317424Y0251466*
X0317289Y0251526*
X0317154Y0251556*
X0317049Y0251586*
X0316944Y0251601*
X0316869*
X0316689Y0251586*
X0316525Y0251541*
X0316375Y0251466*
X031624Y0251392*
X0316135Y0251302*
X031606Y0251242*
X0316015Y0251182*
X0316Y0251167*
X031588Y0251002*
X031579Y0250837*
X031573Y0250672*
X0315685Y0250537*
X0315655Y0250402*
X031564Y0250297*
Y0250237*
Y0250207*
X0315655Y0250057*
X031567Y0249922*
X0315715Y0249788*
X031576Y0249653*
X0315805Y0249548*
X0315835Y0249473*
X0315865Y0249413*
X031588Y0249398*
X0315985Y0249248*
X0316105Y0249098*
X0316225Y0248963*
X031636Y0248843*
X031648Y0248738*
X0316569Y0248663*
X031663Y0248618*
X0316659Y0248603*
X0316884Y0248439*
X0317109Y0248259*
X0317319Y0248064*
X0317514Y0247869*
X0317694Y0247689*
X0317814Y0247554*
X0317874Y0247494*
X0317904Y0247449*
X0317919Y0247434*
X0317934Y0247419*
X0318054Y0247269*
X0318158Y0247104*
X0318323Y0246775*
X0318458Y024646*
X0318533Y0246145*
X0318593Y0245875*
X0318608Y024577*
X0318623Y0245665*
Y0245575*
X0318638Y0245515*
Y0245485*
Y024547*
X0318203*
X0318158Y0245665*
X0318084Y02458*
X0317994Y0245905*
X0317919Y0245965*
X0317844Y024601*
X0317769Y0246025*
X0317724Y024604*
X0317709*
X0317574Y0246025*
X0317454Y0245995*
X0317364Y0245965*
X0317349Y024595*
X0317334*
X0317139Y0245785*
X0316944Y024565*
X0316749Y024556*
X0316569Y02455*
X031642Y024547*
X03163Y0245456*
X0316225Y0245441*
X0316195*
X031597Y0245456*
X0315745Y0245515*
X031555Y024559*
X0315385Y0245665*
X0315235Y0245755*
X0315115Y0245815*
X0315055Y0245875*
X0315025Y024589*
X0314831Y024607*
X0314666Y024628*
X0314546Y0246505*
X0314441Y0246715*
X0314366Y0246909*
X0314321Y0247074*
X0314306Y0247119*
Y0247164*
X0314291Y0247194*
Y0247209*
X0314696Y0247359*
X0314801Y0247149*
X0314906Y0246984*
X0314981Y0246849*
X0315055Y0246745*
X0315115Y024667*
X031516Y024661*
X0315175Y0246595*
X031519Y024658*
X0315355Y024649*
X0315505Y0246445*
X031558*
X031564Y024643*
X0315685*
X0315745Y0246445*
X0315835Y024646*
X031606Y024652*
X0316165Y024655*
X0316255Y0246565*
X03163Y0246595*
X031633*
X0316525Y0246655*
X0316704Y0246715*
X0316869Y0246745*
X0316989Y024676*
X0317094Y0246775*
X0317184Y024679*
X0317244*
X0317424Y0246775*
X0317559Y0246745*
X0317679Y02467*
X0317769Y0246655*
X0317829Y024661*
X0317874Y0246565*
X0317889Y0246535*
X0317904Y024652*
X0317844Y0246655*
X0317754Y0246805*
X0317649Y0246954*
X0317514Y0247104*
X0317229Y0247389*
X0316929Y0247644*
X0316645Y0247884*
X031651Y0247974*
X0316405Y0248064*
X03163Y0248139*
X0316225Y0248184*
X031618Y0248214*
X0316165Y0248229*
X031588Y0248424*
X031564Y0248618*
X0315415Y0248813*
X0315235Y0249008*
X0315086Y0249203*
X0314951Y0249383*
X0314846Y0249563*
X0314756Y0249728*
X0314696Y0249878*
X0314651Y0250012*
X0314606Y0250147*
X0314591Y0250252*
X0314576Y0250327*
X0314561Y0250402*
Y0250432*
Y0250447*
X0314591Y0250717*
X0314651Y0250957*
X0314741Y0251167*
X0314846Y0251346*
X0314966Y0251496*
X0315055Y0251616*
X0315115Y0251676*
X0315145Y0251706*
X031537Y0251886*
X031561Y0252006*
X0315835Y0252096*
X031606Y0252171*
X031624Y0252201*
X031639Y0252216*
X031645Y0252231*
X0316525*
X0316854Y0252201*
G37*
G36*
X011213D02*
X011243Y0252141D01*
X0112699Y0252036*
X0112924Y0251931*
X0113104Y0251826*
X0113239Y0251721*
X0113329Y0251661*
X0113359Y0251631*
X0113569Y0251407*
X0113719Y0251167*
X0113824Y0250927*
X0113899Y0250687*
X0113944Y0250492*
X0113959Y0250342*
X0113974Y0250282*
Y0250237*
Y0250207*
Y0250192*
X0113959Y0249982*
X0113929Y0249803*
X0113869Y0249653*
X0113809Y0249518*
X0113764Y0249413*
X0113704Y0249323*
X0113674Y0249278*
X0113659Y0249263*
X0113539Y0249143*
X0113404Y0249053*
X0113254Y0248993*
X0113134Y0248948*
X0113014Y0248918*
X0112924Y0248903*
X0112834*
X0112654Y0248918*
X0112505Y0248948*
X0112355Y0248993*
X011225Y0249038*
X0112145Y0249083*
X0112085Y0249128*
X011204Y0249158*
X0112025Y0249173*
X011192Y0249293*
X0111845Y0249413*
X0111785Y0249533*
X0111755Y0249653*
X0111725Y0249758*
X011171Y0249848*
Y0249907*
Y0249922*
Y0250027*
X011174Y0250117*
X01118Y0250297*
X011183Y0250372*
X011186Y0250432*
X0111875Y0250462*
X011189Y0250477*
X0112235Y0250372*
Y0250162*
X0112265Y0250042*
X011231Y0249953*
X0112355Y0249892*
X0112385Y0249863*
X0112505Y0249788*
X011261Y0249743*
X0112699Y0249728*
X0112744*
X0112819Y0249743*
X0112894Y0249758*
X0113029Y0249833*
X0113104Y0249892*
X0113119Y0249907*
X0113134Y0249922*
X0113194Y0249997*
X0113224Y0250087*
X0113284Y0250267*
Y0250357*
X0113299Y0250417*
Y0250462*
Y0250477*
X0113284Y0250657*
X0113254Y0250807*
X0113194Y0250957*
X0113134Y0251062*
X0113074Y0251167*
X0113014Y0251227*
X0112984Y0251272*
X0112969Y0251287*
X0112834Y0251392*
X0112699Y0251466*
X0112565Y0251526*
X011243Y0251556*
X0112325Y0251586*
X011222Y0251601*
X0112145*
X0111965Y0251586*
X01118Y0251541*
X011165Y0251466*
X0111515Y0251392*
X011141Y0251302*
X0111335Y0251242*
X0111291Y0251182*
X0111275Y0251167*
X0111155Y0251002*
X0111066Y0250837*
X0111006Y0250672*
X0110961Y0250537*
X0110931Y0250402*
X0110916Y0250297*
Y0250237*
Y0250207*
X0110931Y0250057*
X0110946Y0249922*
X0110991Y0249788*
X0111036Y0249653*
X0111081Y0249548*
X0111111Y0249473*
X0111141Y0249413*
X0111155Y0249398*
X011126Y0249248*
X011138Y0249098*
X01115Y0248963*
X0111635Y0248843*
X0111755Y0248738*
X0111845Y0248663*
X0111905Y0248618*
X0111935Y0248603*
X011216Y0248439*
X0112385Y0248259*
X0112595Y0248064*
X0112789Y0247869*
X0112969Y0247689*
X0113089Y0247554*
X0113149Y0247494*
X0113179Y0247449*
X0113194Y0247434*
X0113209Y0247419*
X0113329Y0247269*
X0113434Y0247104*
X0113599Y0246775*
X0113734Y024646*
X0113809Y0246145*
X0113869Y0245875*
X0113884Y024577*
X0113899Y0245665*
Y0245575*
X0113914Y0245515*
Y0245485*
Y024547*
X0113479*
X0113434Y0245665*
X0113359Y02458*
X0113269Y0245905*
X0113194Y0245965*
X0113119Y024601*
X0113044Y0246025*
X0112999Y024604*
X0112984*
X0112849Y0246025*
X011273Y0245995*
X011264Y0245965*
X0112625Y024595*
X011261*
X0112415Y0245785*
X011222Y024565*
X0112025Y024556*
X0111845Y02455*
X0111695Y024547*
X0111575Y0245456*
X01115Y0245441*
X011147*
X0111246Y0245456*
X0111021Y0245515*
X0110826Y024559*
X0110661Y0245665*
X0110511Y0245755*
X0110391Y0245815*
X0110331Y0245875*
X0110301Y024589*
X0110106Y024607*
X0109941Y024628*
X0109821Y0246505*
X0109716Y0246715*
X0109642Y0246909*
X0109597Y0247074*
X0109582Y0247119*
Y0247164*
X0109567Y0247194*
Y0247209*
X0109971Y0247359*
X0110076Y0247149*
X0110181Y0246984*
X0110256Y0246849*
X0110331Y0246745*
X0110391Y024667*
X0110436Y024661*
X0110451Y0246595*
X0110466Y024658*
X0110631Y024649*
X0110781Y0246445*
X0110856*
X0110916Y024643*
X0110961*
X0111021Y0246445*
X0111111Y024646*
X0111335Y024652*
X011144Y024655*
X011153Y0246565*
X0111575Y0246595*
X0111605*
X01118Y0246655*
X011198Y0246715*
X0112145Y0246745*
X0112265Y024676*
X011237Y0246775*
X011246Y024679*
X011252*
X0112699Y0246775*
X0112834Y0246745*
X0112954Y02467*
X0113044Y0246655*
X0113104Y024661*
X0113149Y0246565*
X0113164Y0246535*
X0113179Y024652*
X0113119Y0246655*
X0113029Y0246805*
X0112924Y0246954*
X0112789Y0247104*
X0112505Y0247389*
X0112205Y0247644*
X011192Y0247884*
X0111785Y0247974*
X011168Y0248064*
X0111575Y0248139*
X01115Y0248184*
X0111455Y0248214*
X011144Y0248229*
X0111155Y0248424*
X0110916Y0248618*
X0110691Y0248813*
X0110511Y0249008*
X0110361Y0249203*
X0110226Y0249383*
X0110121Y0249563*
X0110031Y0249728*
X0109971Y0249878*
X0109926Y0250012*
X0109881Y0250147*
X0109866Y0250252*
X0109851Y0250327*
X0109836Y0250402*
Y0250432*
Y0250447*
X0109866Y0250717*
X0109926Y0250957*
X0110016Y0251167*
X0110121Y0251346*
X0110241Y0251496*
X0110331Y0251616*
X0110391Y0251676*
X0110421Y0251706*
X0110646Y0251886*
X0110886Y0252006*
X0111111Y0252096*
X0111335Y0252171*
X0111515Y0252201*
X0111665Y0252216*
X0111725Y0252231*
X01118*
X011213Y0252201*
G37*
G36*
X0348978Y0246055D02*
X0348258Y0245321D01*
X0347509Y0246085*
X0348258Y0246865*
X0348978Y0246055*
G37*
G36*
X0144254D02*
X0143534Y0245321D01*
X0142784Y0246085*
X0143534Y0246865*
X0144254Y0246055*
G37*
G36*
X0336236D02*
X0335517Y0245321D01*
X0334767Y0246085*
X0335517Y0246865*
X0336236Y0246055*
G37*
G36*
X0131512D02*
X0130792Y0245321D01*
X0130043Y0246085*
X0130792Y0246865*
X0131512Y0246055*
G37*
G54D47*
X0152461Y0060827D02*
D01*
X0152459Y0060861*
X0152456Y0060895*
X015245Y0060929*
X0152441Y0060962*
X0152431Y0060995*
X0152418Y0061027*
X0152403Y0061057*
X0152386Y0061087*
X0152367Y0061116*
X0152345Y0061143*
X0152322Y0061168*
X0152298Y0061192*
X0152271Y0061214*
X0152244Y0061234*
X0152215Y0061253*
X0152184Y0061269*
X0152153Y0061283*
X0152121Y0061294*
X0152088Y0061304*
X0152054Y0061311*
X015202Y0061316*
X0151986Y0061318*
X0151951*
X0151917Y0061316*
X0151883Y0061311*
X0151849Y0061304*
X0151816Y0061294*
X0151784Y0061283*
X0151753Y0061269*
X0151723Y0061253*
X0151693Y0061234*
X0151666Y0061214*
X0151639Y0061192*
X0151615Y0061168*
X0151592Y0061143*
X015157Y0061116*
X0151551Y0061087*
X0151534Y0061057*
X0151519Y0061027*
X0151506Y0060995*
X0151496Y0060962*
X0151487Y0060929*
X0151481Y0060895*
X0151478Y0060861*
X0151477Y0060827*
X0151478Y0060792*
X0151481Y0060758*
X0151487Y0060724*
X0151496Y0060691*
X0151506Y0060658*
X0151519Y0060626*
X0151534Y0060596*
X0151551Y0060566*
X015157Y0060537*
X0151592Y006051*
X0151615Y0060485*
X0151639Y0060461*
X0151666Y0060439*
X0151693Y0060419*
X0151723Y00604*
X0151753Y0060384*
X0151784Y006037*
X0151816Y0060359*
X0151849Y0060349*
X0151883Y0060342*
X0151917Y0060337*
X0151951Y0060335*
X0151986*
X015202Y0060337*
X0152054Y0060342*
X0152088Y0060349*
X0152121Y0060359*
X0152153Y006037*
X0152184Y0060384*
X0152215Y00604*
X0152244Y0060419*
X0152271Y0060439*
X0152298Y0060461*
X0152322Y0060485*
X0152345Y006051*
X0152367Y0060537*
X0152386Y0060566*
X0152403Y0060596*
X0152418Y0060626*
X0152431Y0060658*
X0152441Y0060691*
X015245Y0060724*
X0152456Y0060758*
X0152459Y0060792*
X0152461Y0060827*
X016679Y0043403D02*
D01*
X0166788Y0043437*
X0166785Y0043471*
X0166779Y0043505*
X016677Y0043538*
X016676Y0043571*
X0166747Y0043603*
X0166732Y0043633*
X0166715Y0043663*
X0166696Y0043692*
X0166674Y0043719*
X0166651Y0043744*
X0166627Y0043768*
X01666Y004379*
X0166573Y004381*
X0166544Y0043829*
X0166513Y0043845*
X0166482Y0043859*
X016645Y004387*
X0166417Y004388*
X0166383Y0043887*
X0166349Y0043892*
X0166315Y0043894*
X016628*
X0166246Y0043892*
X0166212Y0043887*
X0166178Y004388*
X0166145Y004387*
X0166113Y0043859*
X0166082Y0043845*
X0166052Y0043829*
X0166022Y004381*
X0165995Y004379*
X0165968Y0043768*
X0165944Y0043744*
X0165921Y0043719*
X0165899Y0043692*
X016588Y0043663*
X0165863Y0043633*
X0165848Y0043603*
X0165835Y0043571*
X0165825Y0043538*
X0165816Y0043505*
X016581Y0043471*
X0165807Y0043437*
X0165806Y0043403*
X0165807Y0043368*
X016581Y0043334*
X0165816Y00433*
X0165825Y0043267*
X0165835Y0043234*
X0165848Y0043202*
X0165863Y0043172*
X016588Y0043142*
X0165899Y0043113*
X0165921Y0043086*
X0165944Y0043061*
X0165968Y0043037*
X0165995Y0043015*
X0166022Y0042995*
X0166052Y0042976*
X0166082Y004296*
X0166113Y0042946*
X0166145Y0042935*
X0166178Y0042925*
X0166212Y0042918*
X0166246Y0042913*
X016628Y0042911*
X0166315*
X0166349Y0042913*
X0166383Y0042918*
X0166417Y0042925*
X016645Y0042935*
X0166482Y0042946*
X0166513Y004296*
X0166544Y0042976*
X0166573Y0042995*
X01666Y0043015*
X0166627Y0043037*
X0166651Y0043061*
X0166674Y0043086*
X0166696Y0043113*
X0166715Y0043142*
X0166732Y0043172*
X0166747Y0043202*
X016676Y0043234*
X016677Y0043267*
X0166779Y00433*
X0166785Y0043334*
X0166788Y0043368*
X016679Y0043403*
X0161713Y0033858D02*
D01*
X0161711Y0033892*
X0161708Y0033926*
X0161702Y003396*
X0161693Y0033993*
X0161683Y0034026*
X016167Y0034058*
X0161655Y0034088*
X0161638Y0034118*
X0161619Y0034147*
X0161597Y0034174*
X0161574Y0034199*
X016155Y0034223*
X0161523Y0034245*
X0161496Y0034265*
X0161467Y0034284*
X0161436Y00343*
X0161405Y0034314*
X0161373Y0034325*
X016134Y0034335*
X0161306Y0034342*
X0161272Y0034347*
X0161238Y0034349*
X0161203*
X0161169Y0034347*
X0161135Y0034342*
X0161101Y0034335*
X0161068Y0034325*
X0161036Y0034314*
X0161005Y00343*
X0160975Y0034284*
X0160945Y0034265*
X0160918Y0034245*
X0160891Y0034223*
X0160867Y0034199*
X0160844Y0034174*
X0160822Y0034147*
X0160803Y0034118*
X0160786Y0034088*
X0160771Y0034058*
X0160758Y0034026*
X0160748Y0033993*
X0160739Y003396*
X0160733Y0033926*
X016073Y0033892*
X0160729Y0033858*
X016073Y0033823*
X0160733Y0033789*
X0160739Y0033755*
X0160748Y0033722*
X0160758Y0033689*
X0160771Y0033657*
X0160786Y0033627*
X0160803Y0033597*
X0160822Y0033568*
X0160844Y0033541*
X0160867Y0033516*
X0160891Y0033492*
X0160918Y003347*
X0160945Y003345*
X0160975Y0033431*
X0161005Y0033415*
X0161036Y0033401*
X0161068Y003339*
X0161101Y003338*
X0161135Y0033373*
X0161169Y0033368*
X0161203Y0033366*
X0161238*
X0161272Y0033368*
X0161306Y0033373*
X016134Y003338*
X0161373Y003339*
X0161405Y0033401*
X0161436Y0033415*
X0161467Y0033431*
X0161496Y003345*
X0161523Y003347*
X016155Y0033492*
X0161574Y0033516*
X0161597Y0033541*
X0161619Y0033568*
X0161638Y0033597*
X0161655Y0033627*
X016167Y0033657*
X0161683Y0033689*
X0161693Y0033722*
X0161702Y0033755*
X0161708Y0033789*
X0161711Y0033823*
X0161713Y0033858*
X0357185Y0060827D02*
D01*
X0357183Y0060861*
X035718Y0060895*
X0357174Y0060929*
X0357165Y0060962*
X0357155Y0060995*
X0357142Y0061027*
X0357127Y0061057*
X035711Y0061087*
X0357091Y0061116*
X0357069Y0061143*
X0357046Y0061168*
X0357022Y0061192*
X0356995Y0061214*
X0356968Y0061234*
X0356939Y0061253*
X0356908Y0061269*
X0356877Y0061283*
X0356845Y0061294*
X0356812Y0061304*
X0356778Y0061311*
X0356744Y0061316*
X035671Y0061318*
X0356675*
X0356641Y0061316*
X0356607Y0061311*
X0356573Y0061304*
X035654Y0061294*
X0356508Y0061283*
X0356477Y0061269*
X0356447Y0061253*
X0356417Y0061234*
X035639Y0061214*
X0356363Y0061192*
X0356339Y0061168*
X0356316Y0061143*
X0356294Y0061116*
X0356275Y0061087*
X0356258Y0061057*
X0356243Y0061027*
X035623Y0060995*
X035622Y0060962*
X0356211Y0060929*
X0356205Y0060895*
X0356202Y0060861*
X0356201Y0060827*
X0356202Y0060792*
X0356205Y0060758*
X0356211Y0060724*
X035622Y0060691*
X035623Y0060658*
X0356243Y0060626*
X0356258Y0060596*
X0356275Y0060566*
X0356294Y0060537*
X0356316Y006051*
X0356339Y0060485*
X0356363Y0060461*
X035639Y0060439*
X0356417Y0060419*
X0356447Y00604*
X0356477Y0060384*
X0356508Y006037*
X035654Y0060359*
X0356573Y0060349*
X0356607Y0060342*
X0356641Y0060337*
X0356675Y0060335*
X035671*
X0356744Y0060337*
X0356778Y0060342*
X0356812Y0060349*
X0356845Y0060359*
X0356877Y006037*
X0356908Y0060384*
X0356939Y00604*
X0356968Y0060419*
X0356995Y0060439*
X0357022Y0060461*
X0357046Y0060485*
X0357069Y006051*
X0357091Y0060537*
X035711Y0060566*
X0357127Y0060596*
X0357142Y0060626*
X0357155Y0060658*
X0357165Y0060691*
X0357174Y0060724*
X035718Y0060758*
X0357183Y0060792*
X0357185Y0060827*
X0371514Y0043403D02*
D01*
X0371512Y0043437*
X0371509Y0043471*
X0371503Y0043505*
X0371494Y0043538*
X0371484Y0043571*
X0371471Y0043603*
X0371456Y0043633*
X0371439Y0043663*
X037142Y0043692*
X0371398Y0043719*
X0371375Y0043744*
X0371351Y0043768*
X0371324Y004379*
X0371297Y004381*
X0371268Y0043829*
X0371237Y0043845*
X0371206Y0043859*
X0371174Y004387*
X0371141Y004388*
X0371107Y0043887*
X0371073Y0043892*
X0371039Y0043894*
X0371004*
X037097Y0043892*
X0370936Y0043887*
X0370902Y004388*
X0370869Y004387*
X0370837Y0043859*
X0370806Y0043845*
X0370776Y0043829*
X0370746Y004381*
X0370719Y004379*
X0370692Y0043768*
X0370668Y0043744*
X0370645Y0043719*
X0370623Y0043692*
X0370604Y0043663*
X0370587Y0043633*
X0370572Y0043603*
X0370559Y0043571*
X0370549Y0043538*
X037054Y0043505*
X0370534Y0043471*
X0370531Y0043437*
X037053Y0043403*
X0370531Y0043368*
X0370534Y0043334*
X037054Y00433*
X0370549Y0043267*
X0370559Y0043234*
X0370572Y0043202*
X0370587Y0043172*
X0370604Y0043142*
X0370623Y0043113*
X0370645Y0043086*
X0370668Y0043061*
X0370692Y0043037*
X0370719Y0043015*
X0370746Y0042995*
X0370776Y0042976*
X0370806Y004296*
X0370837Y0042946*
X0370869Y0042935*
X0370902Y0042925*
X0370936Y0042918*
X037097Y0042913*
X0371004Y0042911*
X0371039*
X0371073Y0042913*
X0371107Y0042918*
X0371141Y0042925*
X0371174Y0042935*
X0371206Y0042946*
X0371237Y004296*
X0371268Y0042976*
X0371297Y0042995*
X0371324Y0043015*
X0371351Y0043037*
X0371375Y0043061*
X0371398Y0043086*
X037142Y0043113*
X0371439Y0043142*
X0371456Y0043172*
X0371471Y0043202*
X0371484Y0043234*
X0371494Y0043267*
X0371503Y00433*
X0371509Y0043334*
X0371512Y0043368*
X0371514Y0043403*
X0366437Y0033858D02*
D01*
X0366435Y0033892*
X0366432Y0033926*
X0366426Y003396*
X0366417Y0033993*
X0366407Y0034026*
X0366394Y0034058*
X0366379Y0034088*
X0366362Y0034118*
X0366343Y0034147*
X0366321Y0034174*
X0366298Y0034199*
X0366274Y0034223*
X0366247Y0034245*
X036622Y0034265*
X0366191Y0034284*
X036616Y00343*
X0366129Y0034314*
X0366097Y0034325*
X0366064Y0034335*
X036603Y0034342*
X0365996Y0034347*
X0365962Y0034349*
X0365927*
X0365893Y0034347*
X0365859Y0034342*
X0365825Y0034335*
X0365792Y0034325*
X036576Y0034314*
X0365729Y00343*
X0365699Y0034284*
X0365669Y0034265*
X0365642Y0034245*
X0365615Y0034223*
X0365591Y0034199*
X0365568Y0034174*
X0365546Y0034147*
X0365527Y0034118*
X036551Y0034088*
X0365495Y0034058*
X0365482Y0034026*
X0365472Y0033993*
X0365463Y003396*
X0365457Y0033926*
X0365454Y0033892*
X0365453Y0033858*
X0365454Y0033823*
X0365457Y0033789*
X0365463Y0033755*
X0365472Y0033722*
X0365482Y0033689*
X0365495Y0033657*
X036551Y0033627*
X0365527Y0033597*
X0365546Y0033568*
X0365568Y0033541*
X0365591Y0033516*
X0365615Y0033492*
X0365642Y003347*
X0365669Y003345*
X0365699Y0033431*
X0365729Y0033415*
X036576Y0033401*
X0365792Y003339*
X0365825Y003338*
X0365859Y0033373*
X0365893Y0033368*
X0365927Y0033366*
X0365962*
X0365996Y0033368*
X036603Y0033373*
X0366064Y003338*
X0366097Y003339*
X0366129Y0033401*
X036616Y0033415*
X0366191Y0033431*
X036622Y003345*
X0366247Y003347*
X0366274Y0033492*
X0366298Y0033516*
X0366321Y0033541*
X0366343Y0033568*
X0366362Y0033597*
X0366379Y0033627*
X0366394Y0033657*
X0366407Y0033689*
X0366417Y0033722*
X0366426Y0033755*
X0366432Y0033789*
X0366435Y0033823*
X0366437Y0033858*
X0152461Y0344291D02*
D01*
X0152459Y0344325*
X0152456Y0344359*
X015245Y0344393*
X0152441Y0344426*
X0152431Y0344459*
X0152418Y0344491*
X0152403Y0344521*
X0152386Y0344551*
X0152367Y034458*
X0152345Y0344607*
X0152322Y0344632*
X0152298Y0344656*
X0152271Y0344678*
X0152244Y0344698*
X0152215Y0344717*
X0152184Y0344733*
X0152153Y0344747*
X0152121Y0344758*
X0152088Y0344768*
X0152054Y0344775*
X015202Y034478*
X0151986Y0344782*
X0151951*
X0151917Y034478*
X0151883Y0344775*
X0151849Y0344768*
X0151816Y0344758*
X0151784Y0344747*
X0151753Y0344733*
X0151723Y0344717*
X0151693Y0344698*
X0151666Y0344678*
X0151639Y0344656*
X0151615Y0344632*
X0151592Y0344607*
X015157Y034458*
X0151551Y0344551*
X0151534Y0344521*
X0151519Y0344491*
X0151506Y0344459*
X0151496Y0344426*
X0151487Y0344393*
X0151481Y0344359*
X0151478Y0344325*
X0151477Y0344291*
X0151478Y0344256*
X0151481Y0344222*
X0151487Y0344188*
X0151496Y0344155*
X0151506Y0344122*
X0151519Y034409*
X0151534Y034406*
X0151551Y034403*
X015157Y0344001*
X0151592Y0343974*
X0151615Y0343949*
X0151639Y0343925*
X0151666Y0343903*
X0151693Y0343883*
X0151723Y0343864*
X0151753Y0343848*
X0151784Y0343834*
X0151816Y0343823*
X0151849Y0343813*
X0151883Y0343806*
X0151917Y0343801*
X0151951Y0343799*
X0151986*
X015202Y0343801*
X0152054Y0343806*
X0152088Y0343813*
X0152121Y0343823*
X0152153Y0343834*
X0152184Y0343848*
X0152215Y0343864*
X0152244Y0343883*
X0152271Y0343903*
X0152298Y0343925*
X0152322Y0343949*
X0152345Y0343974*
X0152367Y0344001*
X0152386Y034403*
X0152403Y034406*
X0152418Y034409*
X0152431Y0344122*
X0152441Y0344155*
X015245Y0344188*
X0152456Y0344222*
X0152459Y0344256*
X0152461Y0344291*
X016679Y0326867D02*
D01*
X0166788Y0326901*
X0166785Y0326935*
X0166779Y0326969*
X016677Y0327002*
X016676Y0327035*
X0166747Y0327067*
X0166732Y0327097*
X0166715Y0327127*
X0166696Y0327156*
X0166674Y0327183*
X0166651Y0327208*
X0166627Y0327232*
X01666Y0327254*
X0166573Y0327274*
X0166544Y0327293*
X0166513Y0327309*
X0166482Y0327323*
X016645Y0327334*
X0166417Y0327344*
X0166383Y0327351*
X0166349Y0327356*
X0166315Y0327358*
X016628*
X0166246Y0327356*
X0166212Y0327351*
X0166178Y0327344*
X0166145Y0327334*
X0166113Y0327323*
X0166082Y0327309*
X0166052Y0327293*
X0166022Y0327274*
X0165995Y0327254*
X0165968Y0327232*
X0165944Y0327208*
X0165921Y0327183*
X0165899Y0327156*
X016588Y0327127*
X0165863Y0327097*
X0165848Y0327067*
X0165835Y0327035*
X0165825Y0327002*
X0165816Y0326969*
X016581Y0326935*
X0165807Y0326901*
X0165806Y0326867*
X0165807Y0326832*
X016581Y0326798*
X0165816Y0326764*
X0165825Y0326731*
X0165835Y0326698*
X0165848Y0326666*
X0165863Y0326636*
X016588Y0326606*
X0165899Y0326577*
X0165921Y032655*
X0165944Y0326525*
X0165968Y0326501*
X0165995Y0326479*
X0166022Y0326459*
X0166052Y032644*
X0166082Y0326424*
X0166113Y032641*
X0166145Y0326399*
X0166178Y0326389*
X0166212Y0326382*
X0166246Y0326377*
X016628Y0326375*
X0166315*
X0166349Y0326377*
X0166383Y0326382*
X0166417Y0326389*
X016645Y0326399*
X0166482Y032641*
X0166513Y0326424*
X0166544Y032644*
X0166573Y0326459*
X01666Y0326479*
X0166627Y0326501*
X0166651Y0326525*
X0166674Y032655*
X0166696Y0326577*
X0166715Y0326606*
X0166732Y0326636*
X0166747Y0326666*
X016676Y0326698*
X016677Y0326731*
X0166779Y0326764*
X0166785Y0326798*
X0166788Y0326832*
X016679Y0326867*
X0161713Y0317323D02*
D01*
X0161711Y0317357*
X0161708Y0317391*
X0161702Y0317425*
X0161693Y0317458*
X0161683Y0317491*
X016167Y0317523*
X0161655Y0317553*
X0161638Y0317583*
X0161619Y0317612*
X0161597Y0317639*
X0161574Y0317664*
X016155Y0317688*
X0161523Y031771*
X0161496Y031773*
X0161467Y0317749*
X0161436Y0317765*
X0161405Y0317779*
X0161373Y031779*
X016134Y03178*
X0161306Y0317807*
X0161272Y0317812*
X0161238Y0317814*
X0161203*
X0161169Y0317812*
X0161135Y0317807*
X0161101Y03178*
X0161068Y031779*
X0161036Y0317779*
X0161005Y0317765*
X0160975Y0317749*
X0160945Y031773*
X0160918Y031771*
X0160891Y0317688*
X0160867Y0317664*
X0160844Y0317639*
X0160822Y0317612*
X0160803Y0317583*
X0160786Y0317553*
X0160771Y0317523*
X0160758Y0317491*
X0160748Y0317458*
X0160739Y0317425*
X0160733Y0317391*
X016073Y0317357*
X0160729Y0317323*
X016073Y0317288*
X0160733Y0317254*
X0160739Y031722*
X0160748Y0317187*
X0160758Y0317154*
X0160771Y0317122*
X0160786Y0317092*
X0160803Y0317062*
X0160822Y0317033*
X0160844Y0317006*
X0160867Y0316981*
X0160891Y0316957*
X0160918Y0316935*
X0160945Y0316915*
X0160975Y0316896*
X0161005Y031688*
X0161036Y0316866*
X0161068Y0316855*
X0161101Y0316845*
X0161135Y0316838*
X0161169Y0316833*
X0161203Y0316831*
X0161238*
X0161272Y0316833*
X0161306Y0316838*
X016134Y0316845*
X0161373Y0316855*
X0161405Y0316866*
X0161436Y031688*
X0161467Y0316896*
X0161496Y0316915*
X0161523Y0316935*
X016155Y0316957*
X0161574Y0316981*
X0161597Y0317006*
X0161619Y0317033*
X0161638Y0317062*
X0161655Y0317092*
X016167Y0317122*
X0161683Y0317154*
X0161693Y0317187*
X0161702Y031722*
X0161708Y0317254*
X0161711Y0317288*
X0161713Y0317323*
X0357185Y0344291D02*
D01*
X0357183Y0344325*
X035718Y0344359*
X0357174Y0344393*
X0357165Y0344426*
X0357155Y0344459*
X0357142Y0344491*
X0357127Y0344521*
X035711Y0344551*
X0357091Y034458*
X0357069Y0344607*
X0357046Y0344632*
X0357022Y0344656*
X0356995Y0344678*
X0356968Y0344698*
X0356939Y0344717*
X0356908Y0344733*
X0356877Y0344747*
X0356845Y0344758*
X0356812Y0344768*
X0356778Y0344775*
X0356744Y034478*
X035671Y0344782*
X0356675*
X0356641Y034478*
X0356607Y0344775*
X0356573Y0344768*
X035654Y0344758*
X0356508Y0344747*
X0356477Y0344733*
X0356447Y0344717*
X0356417Y0344698*
X035639Y0344678*
X0356363Y0344656*
X0356339Y0344632*
X0356316Y0344607*
X0356294Y034458*
X0356275Y0344551*
X0356258Y0344521*
X0356243Y0344491*
X035623Y0344459*
X035622Y0344426*
X0356211Y0344393*
X0356205Y0344359*
X0356202Y0344325*
X0356201Y0344291*
X0356202Y0344256*
X0356205Y0344222*
X0356211Y0344188*
X035622Y0344155*
X035623Y0344122*
X0356243Y034409*
X0356258Y034406*
X0356275Y034403*
X0356294Y0344001*
X0356316Y0343974*
X0356339Y0343949*
X0356363Y0343925*
X035639Y0343903*
X0356417Y0343883*
X0356447Y0343864*
X0356477Y0343848*
X0356508Y0343834*
X035654Y0343823*
X0356573Y0343813*
X0356607Y0343806*
X0356641Y0343801*
X0356675Y0343799*
X035671*
X0356744Y0343801*
X0356778Y0343806*
X0356812Y0343813*
X0356845Y0343823*
X0356877Y0343834*
X0356908Y0343848*
X0356939Y0343864*
X0356968Y0343883*
X0356995Y0343903*
X0357022Y0343925*
X0357046Y0343949*
X0357069Y0343974*
X0357091Y0344001*
X035711Y034403*
X0357127Y034406*
X0357142Y034409*
X0357155Y0344122*
X0357165Y0344155*
X0357174Y0344188*
X035718Y0344222*
X0357183Y0344256*
X0357185Y0344291*
X0371514Y0326867D02*
D01*
X0371512Y0326901*
X0371509Y0326935*
X0371503Y0326969*
X0371494Y0327002*
X0371484Y0327035*
X0371471Y0327067*
X0371456Y0327097*
X0371439Y0327127*
X037142Y0327156*
X0371398Y0327183*
X0371375Y0327208*
X0371351Y0327232*
X0371324Y0327254*
X0371297Y0327274*
X0371268Y0327293*
X0371237Y0327309*
X0371206Y0327323*
X0371174Y0327334*
X0371141Y0327344*
X0371107Y0327351*
X0371073Y0327356*
X0371039Y0327358*
X0371004*
X037097Y0327356*
X0370936Y0327351*
X0370902Y0327344*
X0370869Y0327334*
X0370837Y0327323*
X0370806Y0327309*
X0370776Y0327293*
X0370746Y0327274*
X0370719Y0327254*
X0370692Y0327232*
X0370668Y0327208*
X0370645Y0327183*
X0370623Y0327156*
X0370604Y0327127*
X0370587Y0327097*
X0370572Y0327067*
X0370559Y0327035*
X0370549Y0327002*
X037054Y0326969*
X0370534Y0326935*
X0370531Y0326901*
X037053Y0326867*
X0370531Y0326832*
X0370534Y0326798*
X037054Y0326764*
X0370549Y0326731*
X0370559Y0326698*
X0370572Y0326666*
X0370587Y0326636*
X0370604Y0326606*
X0370623Y0326577*
X0370645Y032655*
X0370668Y0326525*
X0370692Y0326501*
X0370719Y0326479*
X0370746Y0326459*
X0370776Y032644*
X0370806Y0326424*
X0370837Y032641*
X0370869Y0326399*
X0370902Y0326389*
X0370936Y0326382*
X037097Y0326377*
X0371004Y0326375*
X0371039*
X0371073Y0326377*
X0371107Y0326382*
X0371141Y0326389*
X0371174Y0326399*
X0371206Y032641*
X0371237Y0326424*
X0371268Y032644*
X0371297Y0326459*
X0371324Y0326479*
X0371351Y0326501*
X0371375Y0326525*
X0371398Y032655*
X037142Y0326577*
X0371439Y0326606*
X0371456Y0326636*
X0371471Y0326666*
X0371484Y0326698*
X0371494Y0326731*
X0371503Y0326764*
X0371509Y0326798*
X0371512Y0326832*
X0371514Y0326867*
X0366437Y0317323D02*
D01*
X0366435Y0317357*
X0366432Y0317391*
X0366426Y0317425*
X0366417Y0317458*
X0366407Y0317491*
X0366394Y0317523*
X0366379Y0317553*
X0366362Y0317583*
X0366343Y0317612*
X0366321Y0317639*
X0366298Y0317664*
X0366274Y0317688*
X0366247Y031771*
X036622Y031773*
X0366191Y0317749*
X036616Y0317765*
X0366129Y0317779*
X0366097Y031779*
X0366064Y03178*
X036603Y0317807*
X0365996Y0317812*
X0365962Y0317814*
X0365927*
X0365893Y0317812*
X0365859Y0317807*
X0365825Y03178*
X0365792Y031779*
X036576Y0317779*
X0365729Y0317765*
X0365699Y0317749*
X0365669Y031773*
X0365642Y031771*
X0365615Y0317688*
X0365591Y0317664*
X0365568Y0317639*
X0365546Y0317612*
X0365527Y0317583*
X036551Y0317553*
X0365495Y0317523*
X0365482Y0317491*
X0365472Y0317458*
X0365463Y0317425*
X0365457Y0317391*
X0365454Y0317357*
X0365453Y0317323*
X0365454Y0317288*
X0365457Y0317254*
X0365463Y031722*
X0365472Y0317187*
X0365482Y0317154*
X0365495Y0317122*
X036551Y0317092*
X0365527Y0317062*
X0365546Y0317033*
X0365568Y0317006*
X0365591Y0316981*
X0365615Y0316957*
X0365642Y0316935*
X0365669Y0316915*
X0365699Y0316896*
X0365729Y031688*
X036576Y0316866*
X0365792Y0316855*
X0365825Y0316845*
X0365859Y0316838*
X0365893Y0316833*
X0365927Y0316831*
X0365962*
X0365996Y0316833*
X036603Y0316838*
X0366064Y0316845*
X0366097Y0316855*
X0366129Y0316866*
X036616Y031688*
X0366191Y0316896*
X036622Y0316915*
X0366247Y0316935*
X0366274Y0316957*
X0366298Y0316981*
X0366321Y0317006*
X0366343Y0317033*
X0366362Y0317062*
X0366379Y0317092*
X0366394Y0317122*
X0366407Y0317154*
X0366417Y0317187*
X0366426Y031722*
X0366432Y0317254*
X0366435Y0317288*
X0366437Y0317323*
G54D49*
X0155512Y0064665D02*
Y0069193D01*
X0138819Y0060039D02*
X0148583D01*
X0138819Y0042323D02*
X0148583D01*
X0138819Y0055709D02*
Y0060039D01*
Y0042323D02*
Y0046654D01*
X0159309Y0052359D02*
X0164821D01*
X0166929Y0034252D02*
Y0040551D01*
X0166142Y0034252D02*
Y0040551D01*
X0165354Y0034252D02*
Y0040551D01*
X0163976D02*
X0174606D01*
X0163976Y0034252D02*
X0174606D01*
X017979Y0096456D02*
X0179135Y0097112D01*
Y0098424*
X017979Y009908*
X0180446*
X0181102Y0098424*
Y0097112*
X0181758Y0096456*
X0182414*
X018307Y0097112*
Y0098424*
X0182414Y009908*
X0179135Y0095144D02*
X018307D01*
X0181758Y0093832*
X018307Y009252*
X0179135*
X018307Y0091208D02*
Y0089897D01*
Y0090552*
X0179135*
X017979Y0091208*
X0132875Y0045274D02*
Y0043962D01*
Y0044618*
X013681*
Y0045274*
Y0043962*
X0133531Y003937D02*
X0132875Y0040026D01*
Y0041338*
X0133531Y0041994*
X0136154*
X013681Y0041338*
Y0040026*
X0136154Y003937*
X013681Y0036091D02*
X0132875D01*
X0134843Y0038059*
Y0035435*
X0172571Y003248D02*
Y0028544D01*
X0170603*
X0169947Y00292*
Y0031824*
X0170603Y003248*
X0172571*
X0166012Y0028544D02*
X0168635D01*
X0166012Y0031168*
Y0031824*
X0166667Y003248*
X0167979*
X0168635Y0031824*
X0166995Y0052821D02*
X0166339Y0053477D01*
Y0054789*
X0166995Y0055445*
X0169619*
X0170275Y0054789*
Y0053477*
X0169619Y0052821*
X0166339Y0048886D02*
X0166995Y0050197D01*
X0168307Y0051509*
X0169619*
X0170275Y0050853*
Y0049542*
X0169619Y0048886*
X0168963*
X0168307Y0049542*
Y0051509*
X0157152Y0075131D02*
X0157808Y0075787D01*
X015912*
X0159776Y0075131*
Y0072507*
X015912Y0071851*
X0157808*
X0157152Y0072507*
X0153216Y0075787D02*
X015584D01*
Y0073819*
X0154528Y0074475*
X0153872*
X0153216Y0073819*
Y0072507*
X0153872Y0071851*
X0155184*
X015584Y0072507*
X0360236Y0064665D02*
Y0069193D01*
X0343543Y0060039D02*
X0353307D01*
X0343543Y0042323D02*
X0353307D01*
X0343543Y0055709D02*
Y0060039D01*
Y0042323D02*
Y0046654D01*
X0364034Y0052359D02*
X0369546D01*
X0371654Y0034252D02*
Y0040551D01*
X0370866Y0034252D02*
Y0040551D01*
X0370079Y0034252D02*
Y0040551D01*
X0368701D02*
X0379331D01*
X0368701Y0034252D02*
X0379331D01*
X0384515Y0096456D02*
X0383859Y0097112D01*
Y0098424*
X0384515Y009908*
X0385171*
X0385827Y0098424*
Y0097112*
X0386483Y0096456*
X0387139*
X0387795Y0097112*
Y0098424*
X0387139Y009908*
X0383859Y0095144D02*
X0387795D01*
X0386483Y0093832*
X0387795Y009252*
X0383859*
X0387795Y0091208D02*
Y0089897D01*
Y0090552*
X0383859*
X0384515Y0091208*
X0337599Y0045274D02*
Y0043962D01*
Y0044618*
X0341535*
Y0045274*
Y0043962*
X0338255Y003937D02*
X0337599Y0040026D01*
Y0041338*
X0338255Y0041994*
X0340879*
X0341535Y0041338*
Y0040026*
X0340879Y003937*
X0341535Y0036091D02*
X0337599D01*
X0339567Y0038059*
Y0035435*
X0377295Y003248D02*
Y0028544D01*
X0375328*
X0374672Y00292*
Y0031824*
X0375328Y003248*
X0377295*
X0370736Y0028544D02*
X037336D01*
X0370736Y0031168*
Y0031824*
X0371392Y003248*
X0372704*
X037336Y0031824*
X037172Y0052821D02*
X0371064Y0053477D01*
Y0054789*
X037172Y0055445*
X0374343*
X0374999Y0054789*
Y0053477*
X0374343Y0052821*
X0371064Y0048886D02*
X037172Y0050197D01*
X0373031Y0051509*
X0374343*
X0374999Y0050853*
Y0049542*
X0374343Y0048886*
X0373687*
X0373031Y0049542*
Y0051509*
X0361876Y0075131D02*
X0362532Y0075787D01*
X0363844*
X03645Y0075131*
Y0072507*
X0363844Y0071851*
X0362532*
X0361876Y0072507*
X0357941Y0075787D02*
X0360564D01*
Y0073819*
X0359253Y0074475*
X0358597*
X0357941Y0073819*
Y0072507*
X0358597Y0071851*
X0359909*
X0360564Y0072507*
X0155512Y034813D02*
Y0352658D01*
X0138819Y0343504D02*
X0148583D01*
X0138819Y0325787D02*
X0148583D01*
X0138819Y0339173D02*
Y0343504D01*
Y0325787D02*
Y0330118D01*
X0159309Y0335824D02*
X0164821D01*
X0166929Y0317717D02*
Y0324016D01*
X0166142Y0317717D02*
Y0324016D01*
X0165354Y0317717D02*
Y0324016D01*
X0163976D02*
X0174606D01*
X0163976Y0317717D02*
X0174606D01*
X017979Y0379921D02*
X0179135Y0380577D01*
Y0381889*
X017979Y0382544*
X0180446*
X0181102Y0381889*
Y0380577*
X0181758Y0379921*
X0182414*
X018307Y0380577*
Y0381889*
X0182414Y0382544*
X0179135Y0378609D02*
X018307D01*
X0181758Y0377297*
X018307Y0375985*
X0179135*
X018307Y0374673D02*
Y0373361D01*
Y0374017*
X0179135*
X017979Y0374673*
X0132875Y0328739D02*
Y0327427D01*
Y0328083*
X013681*
Y0328739*
Y0327427*
X0133531Y0322835D02*
X0132875Y0323491D01*
Y0324803*
X0133531Y0325459*
X0136154*
X013681Y0324803*
Y0323491*
X0136154Y0322835*
X013681Y0319555D02*
X0132875D01*
X0134843Y0321523*
Y0318899*
X0172571Y0315944D02*
Y0312009D01*
X0170603*
X0169947Y0312665*
Y0315288*
X0170603Y0315944*
X0172571*
X0166012Y0312009D02*
X0168635D01*
X0166012Y0314632*
Y0315288*
X0166667Y0315944*
X0167979*
X0168635Y0315288*
X0166995Y0336286D02*
X0166339Y0336942D01*
Y0338254*
X0166995Y033891*
X0169619*
X0170275Y0338254*
Y0336942*
X0169619Y0336286*
X0166339Y033235D02*
X0166995Y0333662D01*
X0168307Y0334974*
X0169619*
X0170275Y0334318*
Y0333006*
X0169619Y033235*
X0168963*
X0168307Y0333006*
Y0334974*
X0157152Y0358595D02*
X0157808Y0359251D01*
X015912*
X0159776Y0358595*
Y0355972*
X015912Y0355316*
X0157808*
X0157152Y0355972*
X0153216Y0359251D02*
X015584D01*
Y0357283*
X0154528Y0357939*
X0153872*
X0153216Y0357283*
Y0355972*
X0153872Y0355316*
X0155184*
X015584Y0355972*
X0360236Y034813D02*
Y0352658D01*
X0343543Y0343504D02*
X0353307D01*
X0343543Y0325787D02*
X0353307D01*
X0343543Y0339173D02*
Y0343504D01*
Y0325787D02*
Y0330118D01*
X0364034Y0335824D02*
X0369546D01*
X0371654Y0317717D02*
Y0324016D01*
X0370866Y0317717D02*
Y0324016D01*
X0370079Y0317717D02*
Y0324016D01*
X0368701D02*
X0379331D01*
X0368701Y0317717D02*
X0379331D01*
X0384515Y0379921D02*
X0383859Y0380577D01*
Y0381889*
X0384515Y0382544*
X0385171*
X0385827Y0381889*
Y0380577*
X0386483Y0379921*
X0387139*
X0387795Y0380577*
Y0381889*
X0387139Y0382544*
X0383859Y0378609D02*
X0387795D01*
X0386483Y0377297*
X0387795Y0375985*
X0383859*
X0387795Y0374673D02*
Y0373361D01*
Y0374017*
X0383859*
X0384515Y0374673*
X0337599Y0328739D02*
Y0327427D01*
Y0328083*
X0341535*
Y0328739*
Y0327427*
X0338255Y0322835D02*
X0337599Y0323491D01*
Y0324803*
X0338255Y0325459*
X0340879*
X0341535Y0324803*
Y0323491*
X0340879Y0322835*
X0341535Y0319555D02*
X0337599D01*
X0339567Y0321523*
Y0318899*
X0377295Y0315944D02*
Y0312009D01*
X0375328*
X0374672Y0312665*
Y0315288*
X0375328Y0315944*
X0377295*
X0370736Y0312009D02*
X037336D01*
X0370736Y0314632*
Y0315288*
X0371392Y0315944*
X0372704*
X037336Y0315288*
X037172Y0336286D02*
X0371064Y0336942D01*
Y0338254*
X037172Y033891*
X0374343*
X0374999Y0338254*
Y0336942*
X0374343Y0336286*
X0371064Y033235D02*
X037172Y0333662D01*
X0373031Y0334974*
X0374343*
X0374999Y0334318*
Y0333006*
X0374343Y033235*
X0373687*
X0373031Y0333006*
Y0334974*
X0361876Y0358595D02*
X0362532Y0359251D01*
X0363844*
X03645Y0358595*
Y0355972*
X0363844Y0355316*
X0362532*
X0361876Y0355972*
X0357941Y0359251D02*
X0360564D01*
Y0357283*
X0359253Y0357939*
X0358597*
X0357941Y0357283*
Y0355972*
X0358597Y0355316*
X0359909*
X0360564Y0355972*
M02*