%FSTAX25Y25*%
%MOIN*%
%SFA1B1*%

%IPPOS*%
%ADD33C,0.059060*%
%ADD34R,0.059060X0.059060*%
%ADD46C,0.039370*%
%ADD52O,0.035560X0.106420*%
%ADD53R,0.035560X0.069020*%
%ADD54R,0.053280X0.065090*%
%ADD55R,0.043430X0.047370*%
%ADD56C,0.078740*%
%ADD57R,0.058000X0.058000*%
%ADD58R,0.065090X0.053280*%
%ADD59R,0.032410X0.030840*%
%ADD60R,0.031620X0.047370*%
%ADD61R,0.045400X0.063120*%
%ADD62R,0.030840X0.032410*%
%ADD63R,0.063120X0.045400*%
%ADD64R,0.047370X0.043430*%
%ADD65R,0.047370X0.031620*%
%ADD66R,0.076900X0.047370*%
%ADD67R,0.058000X0.058000*%
%ADD68C,0.027690*%
%ADD69C,0.244220*%
%ADD70C,0.074930*%
%ADD71C,0.084770*%
%ADD72C,0.082800*%
%ADD73C,0.086740*%
%LNfabrication_panel-1*%
%LPD*%
G54D33*
X0104016Y0191417D03*
X0114016D03*
X0124016D03*
X0134016D03*
X0144016D03*
Y0131417D03*
X0134016D03*
X0124016D03*
X0114016D03*
X0052835Y0191417D03*
X0062835D03*
X0072835D03*
X0082835D03*
X0092835D03*
Y0131417D03*
X0082835D03*
X0072835D03*
X0062835D03*
X030874Y0191417D03*
X031874D03*
X032874D03*
X033874D03*
X034874D03*
Y0131417D03*
X033874D03*
X032874D03*
X031874D03*
X0257559Y0191417D03*
X0267559D03*
X0277559D03*
X0287559D03*
X0297559D03*
Y0131417D03*
X0287559D03*
X0277559D03*
X0267559D03*
X0104016Y0474882D03*
X0114016D03*
X0124016D03*
X0134016D03*
X0144016D03*
Y0414882D03*
X0134016D03*
X0124016D03*
X0114016D03*
X0052835Y0474882D03*
X0062835D03*
X0072835D03*
X0082835D03*
X0092835D03*
Y0414882D03*
X0082835D03*
X0072835D03*
X0062835D03*
X030874Y0474882D03*
X031874D03*
X032874D03*
X033874D03*
X034874D03*
Y0414882D03*
X033874D03*
X032874D03*
X031874D03*
X0257559Y0474882D03*
X0267559D03*
X0277559D03*
X0287559D03*
X0297559D03*
Y0414882D03*
X0287559D03*
X0277559D03*
X0267559D03*
G54D34*
X0104016Y0131417D03*
X0052835D03*
X030874D03*
X0257559D03*
X0104016Y0414882D03*
X0052835D03*
X030874D03*
X0257559D03*
G54D46*
X0151575Y0214567D02*
X0177165Y0240158D01*
X011063Y0214567D02*
X0151575D01*
X0356299D02*
X038189Y0240158D01*
X0315354Y0214567D02*
X0356299D01*
X0151575Y0498032D02*
X0177165Y0523622D01*
X011063Y0498032D02*
X0151575D01*
X0356299D02*
X038189Y0523622D01*
X0315354Y0498032D02*
X0356299D01*
G54D52*
X0020059Y0043504D03*
X0025059D03*
X0030059D03*
X0035059D03*
X0020059Y0070669D03*
X0025059D03*
X0030059D03*
X0035059D03*
X0224783Y0043504D03*
X0229784D03*
X0234784D03*
X0239784D03*
X0224783Y0070669D03*
X0229784D03*
X0234784D03*
X0239784D03*
X0020059Y0326969D03*
X0025059D03*
X0030059D03*
X0035059D03*
X0020059Y0354134D03*
X0025059D03*
X0030059D03*
X0035059D03*
X0224783Y0326969D03*
X0229784D03*
X0234784D03*
X0239784D03*
X0224783Y0354134D03*
X0229784D03*
X0234784D03*
X0239784D03*
G54D53*
X0091319Y0075689D03*
X0086319D03*
X0081319D03*
X0076319D03*
X0071319D03*
X0066319D03*
X0061319D03*
X0056319D03*
Y0054232D03*
X0061319D03*
X0066319D03*
X0071319D03*
X0076319D03*
X0081319D03*
X0086319D03*
X0091319D03*
X01425Y0108169D03*
X01375D03*
X01325D03*
X01275D03*
X01225D03*
X01175D03*
X01125D03*
X01075D03*
Y0086713D03*
X01125D03*
X01175D03*
X01225D03*
X01275D03*
X01325D03*
X01375D03*
X01425D03*
X0091319Y0108169D03*
X0086319D03*
X0081319D03*
X0076319D03*
X0071319D03*
X0066319D03*
X0061319D03*
X0056319D03*
Y0086713D03*
X0061319D03*
X0066319D03*
X0071319D03*
X0076319D03*
X0081319D03*
X0086319D03*
X0091319D03*
X0296043Y0075689D03*
X0291043D03*
X0286043D03*
X0281043D03*
X0276043D03*
X0271043D03*
X0266043D03*
X0261043D03*
Y0054232D03*
X0266043D03*
X0271043D03*
X0276043D03*
X0281043D03*
X0286043D03*
X0291043D03*
X0296043D03*
X0347224Y0108169D03*
X0342224D03*
X0337224D03*
X0332224D03*
X0327224D03*
X0322224D03*
X0317224D03*
X0312224D03*
Y0086713D03*
X0317224D03*
X0322224D03*
X0327224D03*
X0332224D03*
X0337224D03*
X0342224D03*
X0347224D03*
X0296043Y0108169D03*
X0291043D03*
X0286043D03*
X0281043D03*
X0276043D03*
X0271043D03*
X0266043D03*
X0261043D03*
Y0086713D03*
X0266043D03*
X0271043D03*
X0276043D03*
X0281043D03*
X0286043D03*
X0291043D03*
X0296043D03*
X0091319Y0359154D03*
X0086319D03*
X0081319D03*
X0076319D03*
X0071319D03*
X0066319D03*
X0061319D03*
X0056319D03*
Y0337697D03*
X0061319D03*
X0066319D03*
X0071319D03*
X0076319D03*
X0081319D03*
X0086319D03*
X0091319D03*
X01425Y0391634D03*
X01375D03*
X01325D03*
X01275D03*
X01225D03*
X01175D03*
X01125D03*
X01075D03*
Y0370177D03*
X01125D03*
X01175D03*
X01225D03*
X01275D03*
X01325D03*
X01375D03*
X01425D03*
X0091319Y0391634D03*
X0086319D03*
X0081319D03*
X0076319D03*
X0071319D03*
X0066319D03*
X0061319D03*
X0056319D03*
Y0370177D03*
X0061319D03*
X0066319D03*
X0071319D03*
X0076319D03*
X0081319D03*
X0086319D03*
X0091319D03*
X0296043Y0359154D03*
X0291043D03*
X0286043D03*
X0281043D03*
X0276043D03*
X0271043D03*
X0266043D03*
X0261043D03*
Y0337697D03*
X0266043D03*
X0271043D03*
X0276043D03*
X0281043D03*
X0286043D03*
X0291043D03*
X0296043D03*
X0347224Y0391634D03*
X0342224D03*
X0337224D03*
X0332224D03*
X0327224D03*
X0322224D03*
X0317224D03*
X0312224D03*
Y0370177D03*
X0317224D03*
X0322224D03*
X0327224D03*
X0332224D03*
X0337224D03*
X0342224D03*
X0347224D03*
X0296043Y0391634D03*
X0291043D03*
X0286043D03*
X0281043D03*
X0276043D03*
X0271043D03*
X0266043D03*
X0261043D03*
Y0370177D03*
X0266043D03*
X0271043D03*
X0276043D03*
X0281043D03*
X0286043D03*
X0291043D03*
X0296043D03*
G54D54*
X0085433Y0045276D03*
X009252D03*
X0149016Y0086614D03*
X0156102D03*
X0290158Y0045276D03*
X0297244D03*
X035374Y0086614D03*
X0360827D03*
X0085433Y032874D03*
X009252D03*
X0149016Y0370079D03*
X0156102D03*
X0290158Y032874D03*
X0297244D03*
X035374Y0370079D03*
X0360827D03*
G54D55*
X0159646Y0152559D03*
X0153347D03*
X0159646Y0180118D03*
X0153347D03*
X0159646Y0173228D03*
X0153347D03*
X0159646Y0166339D03*
X0153347D03*
X0159646Y0159449D03*
X0153347D03*
X0159646Y0145669D03*
X0153347D03*
X0159646Y0138779D03*
X0153347D03*
X0037205D03*
X0043504D03*
X0037205Y0145669D03*
X0043504D03*
X0037205Y0152559D03*
X0043504D03*
X0037205Y0159449D03*
X0043504D03*
X0037205Y0166339D03*
X0043504D03*
X0037205Y0173228D03*
X0043504D03*
X0037205Y0180118D03*
X0043504D03*
X036437Y0152559D03*
X0358071D03*
X036437Y0180118D03*
X0358071D03*
X036437Y0173228D03*
X0358071D03*
X036437Y0166339D03*
X0358071D03*
X036437Y0159449D03*
X0358071D03*
X036437Y0145669D03*
X0358071D03*
X036437Y0138779D03*
X0358071D03*
X0241929D03*
X0248228D03*
X0241929Y0145669D03*
X0248228D03*
X0241929Y0152559D03*
X0248228D03*
X0241929Y0159449D03*
X0248228D03*
X0241929Y0166339D03*
X0248228D03*
X0241929Y0173228D03*
X0248228D03*
X0241929Y0180118D03*
X0248228D03*
X0159646Y0436024D03*
X0153347D03*
X0159646Y0463583D03*
X0153347D03*
X0159646Y0456693D03*
X0153347D03*
X0159646Y0449803D03*
X0153347D03*
X0159646Y0442913D03*
X0153347D03*
X0159646Y0429134D03*
X0153347D03*
X0159646Y0422244D03*
X0153347D03*
X0037205D03*
X0043504D03*
X0037205Y0429134D03*
X0043504D03*
X0037205Y0436024D03*
X0043504D03*
X0037205Y0442913D03*
X0043504D03*
X0037205Y0449803D03*
X0043504D03*
X0037205Y0456693D03*
X0043504D03*
X0037205Y0463583D03*
X0043504D03*
X036437Y0436024D03*
X0358071D03*
X036437Y0463583D03*
X0358071D03*
X036437Y0456693D03*
X0358071D03*
X036437Y0449803D03*
X0358071D03*
X036437Y0442913D03*
X0358071D03*
X036437Y0429134D03*
X0358071D03*
X036437Y0422244D03*
X0358071D03*
X0241929D03*
X0248228D03*
X0241929Y0429134D03*
X0248228D03*
X0241929Y0436024D03*
X0248228D03*
X0241929Y0442913D03*
X0248228D03*
X0241929Y0449803D03*
X0248228D03*
X0241929Y0456693D03*
X0248228D03*
X0241929Y0463583D03*
X0248228D03*
G54D56*
X000689Y0240158D03*
X0211614D03*
X000689Y0523622D03*
X0211614D03*
G54D57*
X0016732Y0101378D03*
Y0111221D03*
Y0121063D03*
X0221457Y0101378D03*
Y0111221D03*
Y0121063D03*
X0016732Y0384842D03*
Y0394685D03*
Y0404528D03*
X0221457Y0384842D03*
Y0394685D03*
Y0404528D03*
G54D58*
X0011811Y0063386D03*
Y0070472D03*
X009941Y0086024D03*
Y009311D03*
X0216535Y0063386D03*
Y0070472D03*
X0304134Y0086024D03*
Y009311D03*
X0011811Y034685D03*
Y0353937D03*
X009941Y0369488D03*
Y0376575D03*
X0216535Y034685D03*
Y0353937D03*
X0304134Y0369488D03*
Y0376575D03*
G54D59*
X0012795Y0047126D03*
Y0043425D03*
X021752Y0047126D03*
Y0043425D03*
X0012795Y0330591D03*
Y032689D03*
X021752Y0330591D03*
Y032689D03*
G54D60*
X0122047Y0041339D03*
X0125787Y0032283D03*
X0118307D03*
X0074803Y0041929D03*
X0078543Y0032874D03*
X0071063D03*
X0326772Y0041339D03*
X0330512Y0032283D03*
X0323031D03*
X0279528Y0041929D03*
X0283268Y0032874D03*
X0275787D03*
X0122047Y0324803D03*
X0125787Y0315748D03*
X0118307D03*
X0074803Y0325394D03*
X0078543Y0316339D03*
X0071063D03*
X0326772Y0324803D03*
X0330512Y0315748D03*
X0323031D03*
X0279528Y0325394D03*
X0283268Y0316339D03*
X0275787D03*
G54D61*
X0111221Y0033465D03*
X0103347D03*
X0093504D03*
X008563D03*
X0315945D03*
X0308071D03*
X0298228D03*
X0290354D03*
X0111221Y0316929D03*
X0103347D03*
X0093504D03*
X008563D03*
X0315945D03*
X0308071D03*
X0298228D03*
X0290354D03*
G54D62*
X0132008Y003248D03*
X0135709D03*
X0064842D03*
X0061142D03*
X0336732D03*
X0340433D03*
X0269567D03*
X0265866D03*
X0132008Y0315945D03*
X0135709D03*
X0064842D03*
X0061142D03*
X0336732D03*
X0340433D03*
X0269567D03*
X0265866D03*
G54D63*
X000689Y004626D03*
Y0038386D03*
X0211614Y004626D03*
Y0038386D03*
X000689Y0329724D03*
Y032185D03*
X0211614Y0329724D03*
Y032185D03*
G54D64*
X0023622Y0225197D03*
Y0231496D03*
X0228346Y0225197D03*
Y0231496D03*
X0023622Y0508661D03*
Y0514961D03*
X0228346Y0508661D03*
Y0514961D03*
G54D65*
X0015354Y0086614D03*
X0006299Y0082874D03*
Y0090354D03*
X0220079Y0086614D03*
X0211024Y0082874D03*
Y0090354D03*
X0015354Y0370079D03*
X0006299Y0366339D03*
Y0373819D03*
X0220079Y0370079D03*
X0211024Y0366339D03*
Y0373819D03*
G54D66*
X0031496Y0225394D03*
Y0237205D03*
X0236221Y0225394D03*
Y0237205D03*
X0031496Y0508858D03*
Y0520669D03*
X0236221Y0508858D03*
Y0520669D03*
G54D67*
X0123031Y0057087D03*
X0159449Y0023622D03*
Y001378D03*
X0031496Y0204724D03*
X0327756Y0057087D03*
X0364173Y0023622D03*
Y001378D03*
X0236221Y0204724D03*
X0123031Y0340551D03*
X0159449Y0307087D03*
Y0297244D03*
X0031496Y0488189D03*
X0327756Y0340551D03*
X0364173Y0307087D03*
Y0297244D03*
X0236221Y0488189D03*
G54D68*
X0198425Y0556693D03*
Y0552756D03*
Y0548819D03*
Y0544882D03*
Y0540945D03*
Y0537008D03*
X020315D03*
Y0540945D03*
Y0544882D03*
Y0548819D03*
Y0552756D03*
Y0556693D03*
X0399213Y028189D03*
X0395276D03*
X0391339D03*
X0387402D03*
X0383465D03*
X0379528D03*
Y0277165D03*
X0383465D03*
X0387402D03*
X0391339D03*
X0395276D03*
X0399213D03*
X0022047Y028189D03*
X001811D03*
X0014173D03*
X0010236D03*
X0006299D03*
X0002362D03*
Y0277165D03*
X0006299D03*
X0010236D03*
X0014173D03*
X001811D03*
X0022047D03*
X0198425Y0305512D03*
Y0301575D03*
Y0297638D03*
Y0293701D03*
Y0289764D03*
Y0285827D03*
X020315D03*
Y0289764D03*
Y0293701D03*
Y0297638D03*
Y0301575D03*
Y0305512D03*
X0174803Y0277165D03*
X017874D03*
X0182677D03*
X0186614D03*
X0190551D03*
X0194488D03*
Y028189D03*
X0190551D03*
X0186614D03*
X0182677D03*
X017874D03*
X0174803D03*
X0207087Y0277165D03*
X0211024D03*
X0214961D03*
X0218898D03*
X0222835D03*
X0226772D03*
Y028189D03*
X0222835D03*
X0218898D03*
X0214961D03*
X0211024D03*
X0207087D03*
X0198425Y0273622D03*
Y0269685D03*
Y0265748D03*
Y0261811D03*
Y0257874D03*
Y0253937D03*
X020315D03*
Y0257874D03*
Y0261811D03*
Y0265748D03*
Y0269685D03*
Y0273622D03*
Y0022047D03*
Y001811D03*
Y0014173D03*
Y0010236D03*
Y0006299D03*
Y0002362D03*
X0198425D03*
Y0006299D03*
Y0010236D03*
Y0014173D03*
Y001811D03*
Y0022047D03*
G54D69*
X0181102Y0192913D03*
X0015748Y0015748D03*
Y0259842D03*
X0181102Y0015748D03*
X0385827Y0192913D03*
X0220472Y0015748D03*
Y0259842D03*
X0385827Y0015748D03*
X0181102Y0476378D03*
X0015748Y0299213D03*
Y0543307D03*
X0181102Y0299213D03*
X0385827Y0476378D03*
X0220472Y0299213D03*
Y0543307D03*
X0385827Y0299213D03*
G54D70*
X0121063Y0024606D03*
X0146653D03*
X0121063Y000689D03*
X0146653D03*
X0050197Y0024606D03*
X0075787D03*
X0050197Y000689D03*
X0075787D03*
X008563Y0024606D03*
X0111221D03*
X008563Y000689D03*
X0111221D03*
X0325787Y0024606D03*
X0351378D03*
X0325787Y000689D03*
X0351378D03*
X0254921Y0024606D03*
X0280512D03*
X0254921Y000689D03*
X0280512D03*
X0290354Y0024606D03*
X0315945D03*
X0290354Y000689D03*
X0315945D03*
X0121063Y0308071D03*
X0146653D03*
X0121063Y0290354D03*
X0146653D03*
X0050197Y0308071D03*
X0075787D03*
X0050197Y0290354D03*
X0075787D03*
X008563Y0308071D03*
X0111221D03*
X008563Y0290354D03*
X0111221D03*
X0325787Y0308071D03*
X0351378D03*
X0325787Y0290354D03*
X0351378D03*
X0254921Y0308071D03*
X0280512D03*
X0254921Y0290354D03*
X0280512D03*
X0290354Y0308071D03*
X0315945D03*
X0290354Y0290354D03*
X0315945D03*
G54D71*
X0062598Y0261811D03*
X0054724Y0238189D03*
X0062598Y0214567D03*
X011063Y0261811D03*
Y0214567D03*
X0267323Y0261811D03*
X0259449Y0238189D03*
X0267323Y0214567D03*
X0315354Y0261811D03*
Y0214567D03*
X0062598Y0545276D03*
X0054724Y0521654D03*
X0062598Y0498032D03*
X011063Y0545276D03*
Y0498032D03*
X0267323Y0545276D03*
X0259449Y0521654D03*
X0267323Y0498032D03*
X0315354Y0545276D03*
Y0498032D03*
G54D72*
X0042323Y0222126D03*
Y0262126D03*
X0247047Y0222126D03*
Y0262126D03*
X0042323Y050559D03*
Y054559D03*
X0247047Y050559D03*
Y054559D03*
G54D73*
X0177165Y0260157D03*
Y0240158D03*
Y0220158D03*
Y0071024D03*
Y0051024D03*
X038189Y0260157D03*
Y0240158D03*
Y0220158D03*
Y0071024D03*
Y0051024D03*
X0177165Y0543622D03*
Y0523622D03*
Y0503622D03*
Y0354488D03*
Y0334488D03*
X038189Y0543622D03*
Y0523622D03*
Y0503622D03*
Y0354488D03*
Y0334488D03*
M02*